# Blender v2.92.0 OBJ File: 'Cube_Word_Raiders.blend'
# www.blender.org
mtllib Cube_Word_Raiders.mtl
o Cube_Cube.001
v 0.692775 -0.913403 -0.800000
v 0.692775 -0.900000 -0.692775
v 0.800000 -0.913403 -0.692775
v -0.692775 -0.900000 -0.692775
v -0.692775 -0.913403 -0.800000
v -0.800000 -0.913403 -0.692775
v 0.692775 -0.900000 0.692775
v 0.692775 -0.913403 0.800000
v 0.800000 -0.913403 0.692775
v -0.800000 -0.913403 0.692775
v -0.692775 -0.913403 0.800000
v -0.692775 -0.900000 0.692775
v -0.800000 0.692775 -0.913403
v -0.692775 0.692775 -0.900000
v -0.692775 0.800000 -0.913403
v -0.692775 -0.692775 -0.900000
v -0.800000 -0.692775 -0.913403
v -0.692775 -0.800000 -0.913403
v 0.692775 0.692775 -0.900000
v 0.800000 0.692775 -0.913403
v 0.692775 0.800000 -0.913403
v 0.692775 -0.800000 -0.913403
v 0.800000 -0.692775 -0.913403
v 0.692775 -0.692775 -0.900000
v 0.913403 0.692775 -0.800000
v 0.913403 0.800000 -0.692775
v 0.900000 0.692775 -0.692775
v 0.913403 -0.800000 -0.692775
v 0.913403 -0.692775 -0.800000
v 0.900000 -0.692775 -0.692775
v 0.900000 0.692775 0.692775
v 0.913403 0.800000 0.692775
v 0.913403 0.692775 0.800000
v 0.900000 -0.692775 0.692775
v 0.913403 -0.692775 0.800000
v 0.913403 -0.800000 0.692775
v -0.800000 0.692775 0.913403
v -0.692775 0.800000 0.913403
v -0.692775 0.692775 0.900000
v -0.692775 -0.800000 0.913403
v -0.800000 -0.692775 0.913403
v -0.692775 -0.692775 0.900000
v 0.692775 0.692775 0.900000
v 0.692775 0.800000 0.913403
v 0.800000 0.692775 0.913403
v 0.692775 -0.692775 0.900000
v 0.800000 -0.692775 0.913403
v 0.692775 -0.800000 0.913403
v 0.692775 0.913403 -0.800000
v 0.800000 0.913403 -0.692775
v 0.692775 0.900000 -0.692775
v -0.800000 0.913403 -0.692775
v -0.692775 0.913403 -0.800000
v -0.692775 0.900000 -0.692775
v 0.692775 0.900000 0.692775
v 0.800000 0.913403 0.692775
v 0.692775 0.913403 0.800000
v -0.692775 0.900000 0.692775
v -0.692775 0.913403 0.800000
v -0.800000 0.913403 0.692775
v -0.913403 0.692775 -0.800000
v -0.913403 0.800000 -0.692775
v -0.900000 0.692775 -0.692775
v -0.913403 -0.800000 -0.692775
v -0.913403 -0.692775 -0.800000
v -0.900000 -0.692775 -0.692775
v -0.900000 0.692775 0.692775
v -0.913403 0.800000 0.692775
v -0.913403 0.692775 0.800000
v -0.900000 -0.692775 0.692775
v -0.913403 -0.692775 0.800000
v -0.913403 -0.800000 0.692775
v 0.830801 1.000000 -1.000000
v 1.000000 1.000000 -0.830801
v 1.000000 0.830801 -1.000000
v 0.830801 -1.000000 -1.000000
v 1.000000 -0.830801 -1.000000
v 1.000000 -1.000000 -0.830801
v 1.000000 1.000000 0.830801
v 0.830801 1.000000 1.000000
v 1.000000 0.830801 1.000000
v 1.000000 -0.830801 1.000000
v 0.830801 -1.000000 1.000000
v 1.000000 -1.000000 0.830801
v -1.000000 0.830801 -1.000000
v -1.000000 1.000000 -0.830801
v -0.830801 1.000000 -1.000000
v -1.000000 -0.830801 -1.000000
v -0.830801 -1.000000 -1.000000
v -1.000000 -1.000000 -0.830801
v -1.000000 0.830801 1.000000
v -0.830801 1.000000 1.000000
v -1.000000 1.000000 0.830801
v -0.830801 -1.000000 1.000000
v -1.000000 -0.830801 1.000000
v -1.000000 -1.000000 0.830801
v -1.000000 -0.800000 -0.692775
v -1.000000 -0.800000 0.692775
v -1.000000 -0.692775 0.800000
v -1.000000 0.692775 0.800000
v -1.000000 0.800000 -0.692775
v -1.000000 0.800000 0.692775
v -1.000000 -0.692775 -0.800000
v -1.000000 0.692775 -0.800000
v -0.800000 1.000000 -0.692775
v -0.797305 0.999957 0.690508
v -0.692775 1.000000 0.800000
v 0.692775 1.000000 0.800000
v 0.800000 1.000000 -0.692775
v 0.800000 1.000000 0.692775
v -0.692775 1.000000 -0.800000
v 0.692775 1.000000 -0.800000
v -0.692775 -0.800000 1.000000
v 0.692775 -0.800000 1.000000
v 0.800000 -0.692775 1.000000
v 0.800000 0.692775 1.000000
v -0.692775 0.800000 1.000000
v 0.692775 0.800000 1.000000
v -0.800000 -0.692775 1.000000
v -0.800000 0.692775 1.000000
v 1.000000 -0.800000 -0.692775
v 1.000000 -0.800000 0.692775
v 1.000000 -0.692775 0.800000
v 1.000000 0.692775 0.800000
v 1.000000 0.800000 -0.692775
v 1.000000 0.800000 0.692775
v 1.000000 -0.692775 -0.800000
v 1.000000 0.692775 -0.800000
v -0.692775 -0.800000 -1.000000
v 0.692775 -0.800000 -1.000000
v 0.800000 -0.692775 -1.000000
v 0.800000 0.692775 -1.000000
v -0.692775 0.800000 -1.000000
v 0.692775 0.800000 -1.000000
v -0.800000 -0.692775 -1.000000
v -0.800000 0.692775 -1.000000
v -0.800000 -1.000000 -0.692775
v -0.800000 -1.000000 0.692775
v -0.692775 -1.000000 0.800000
v 0.692775 -1.000000 0.800000
v 0.800000 -1.000000 -0.692775
v 0.800000 -1.000000 0.692775
v -0.692775 -1.000000 -0.800000
v 0.692775 -1.000000 -0.800000
vt 0.277779 0.532055
vt 0.301279 0.555555
vt 0.277779 0.555555
vt 0.277779 0.000000
vt 0.277777 0.023524
vt 0.254277 0.000025
vt 0.532056 0.555555
vt 0.555556 0.532055
vt 0.555556 0.555555
vt 0.000000 0.023524
vt 0.000002 0.000000
vt 0.023500 0.000025
vt 0.277779 0.254278
vt 0.301279 0.277777
vt 0.277779 0.277777
vt 0.277779 0.023500
vt 0.277779 0.000000
vt 0.301279 0.000000
vt 0.555556 0.254278
vt 0.555556 0.277777
vt 0.532056 0.277777
vt 0.555556 0.000000
vt 0.555556 0.023500
vt 0.532056 0.000000
vt 0.801833 0.914659
vt 0.801833 0.722221
vt 0.813860 0.722221
vt 0.813860 0.914659
vt 0.789805 0.914659
vt 0.777778 0.914659
vt 0.777778 0.722221
vt 0.789806 0.722221
vt 0.886024 0.722221
vt 0.886024 0.914658
vt 0.873997 0.914658
vt 0.873997 0.722221
vt 0.762886 0.485107
vt 0.570448 0.485107
vt 0.570448 0.292670
vt 0.762886 0.292670
vt 0.762886 0.499999
vt 0.777778 0.485107
vt 0.555556 0.485107
vt 0.570448 0.499999
vt 0.762886 0.277777
vt 0.777778 0.292670
vt 0.555556 0.292670
vt 0.570448 0.277777
vt 0.258304 0.555579
vt 0.258304 0.570471
vt 0.246277 0.570471
vt 0.246277 0.555579
vt 0.777778 0.929551
vt 0.789805 0.929551
vt 0.801833 0.929551
vt 0.813860 0.929551
vt 0.258304 0.762909
vt 0.258304 0.777801
vt 0.246277 0.777801
vt 0.246277 0.762909
vt 0.305557 0.235107
vt 0.320449 0.027778
vt 0.305557 0.042670
vt 0.320449 0.250000
vt 0.512886 0.250000
vt 0.527778 0.235107
vt 0.527779 0.042670
vt 0.512886 0.027778
vt 0.869410 0.192123
vt 0.857388 0.192437
vt 0.857403 0.000000
vt 0.869430 0.000001
vt 0.898052 0.722221
vt 0.898052 0.914658
vt 0.886024 0.914658
vt 0.886024 0.722221
vt 0.857388 0.014892
vt 0.857388 0.207330
vt 0.845361 0.207330
vt 0.845361 0.014892
vt 0.792670 0.485107
vt 0.792670 0.292670
vt 0.985108 0.292670
vt 0.985108 0.485107
vt 0.777778 0.485107
vt 0.792670 0.499999
vt 0.792670 0.277777
vt 0.777778 0.292670
vt 1.000000 0.485107
vt 0.985108 0.499999
vt 0.985108 0.277777
vt 1.000000 0.292670
vt 0.837915 0.722221
vt 0.849942 0.722221
vt 0.849942 0.737113
vt 0.837915 0.737113
vt 0.857388 0.222222
vt 0.845361 0.222222
vt 0.857403 0.207331
vt 0.869430 0.207331
vt 0.845361 0.000000
vt 0.857388 0.000000
vt 0.849942 0.929551
vt 0.837915 0.929551
vt 0.277779 0.301277
vt 0.555556 0.301277
vt 0.527778 0.320447
vt 0.512571 0.305929
vt 0.320449 0.305555
vt 0.305557 0.320447
vt 0.305557 0.512885
vt 0.320449 0.527777
vt 0.512886 0.527777
vt 0.527778 0.512885
vt 0.849942 0.722221
vt 0.861970 0.722221
vt 0.861970 0.914658
vt 0.849942 0.914658
vt 0.246277 0.762909
vt 0.234249 0.762909
vt 0.234249 0.570471
vt 0.246277 0.570471
vt 0.917556 0.000000
vt 0.929583 0.000000
vt 0.929583 0.192437
vt 0.917556 0.192437
vt 0.762886 0.707329
vt 0.570448 0.707329
vt 0.570448 0.514891
vt 0.762886 0.514891
vt 0.762886 0.722221
vt 0.777778 0.707329
vt 0.555556 0.707329
vt 0.570448 0.722221
vt 0.762886 0.499999
vt 0.777778 0.514891
vt 0.555556 0.514891
vt 0.570448 0.499999
vt 0.861970 0.929551
vt 0.849942 0.929551
vt 0.246277 0.777801
vt 0.234249 0.777801
vt 0.234249 0.555579
vt 0.246277 0.555579
vt 0.905527 0.014908
vt 0.893500 0.014908
vt 0.893501 0.000000
vt 0.905528 0.000000
vt 0.905528 0.207345
vt 0.893501 0.207345
vt 0.512886 0.805554
vt 0.532056 0.833332
vt 0.301279 0.833332
vt 0.277779 0.809832
vt 0.305557 0.790662
vt 0.320449 0.805554
vt 0.277779 0.579054
vt 0.301279 0.555555
vt 0.532056 0.555555
vt 0.555556 0.579054
vt 0.555556 0.809832
vt 0.527778 0.790662
vt 0.527778 0.598225
vt 0.512886 0.583332
vt 0.320449 0.583332
vt 0.305557 0.598225
vt 0.801833 0.722221
vt 0.801833 0.914658
vt 0.789806 0.914658
vt 0.789806 0.722221
vt 0.905528 0.000000
vt 0.917556 0.000000
vt 0.917556 0.192437
vt 0.905528 0.192437
vt 0.861969 0.914659
vt 0.861969 0.722221
vt 0.873997 0.722221
vt 0.873997 0.914659
vt 0.792668 0.514891
vt 0.985106 0.514891
vt 0.985106 0.707329
vt 0.792668 0.707329
vt 0.985108 0.499999
vt 1.000000 0.514891
vt 0.777778 0.514891
vt 0.792670 0.499999
vt 1.000000 0.707329
vt 0.985108 0.722221
vt 0.792670 0.722221
vt 0.777778 0.707329
vt 0.222222 0.570471
vt 0.222222 0.555579
vt 0.234249 0.555579
vt 0.234249 0.570471
vt 0.917556 0.207330
vt 0.905528 0.207330
vt 0.801833 0.929551
vt 0.789806 0.929551
vt 0.222222 0.777801
vt 0.222222 0.762909
vt 0.234249 0.762909
vt 0.234249 0.777801
vt 0.027778 0.235132
vt 0.000000 0.254302
vt 0.042670 0.027802
vt 0.027778 0.042695
vt 0.277777 0.254302
vt 0.254278 0.277802
vt 0.023500 0.277802
vt 0.042670 0.250024
vt 0.235107 0.250024
vt 0.250000 0.235132
vt 0.250000 0.042695
vt 0.235107 0.027802
vt 0.825887 0.914658
vt 0.813860 0.914658
vt 0.813860 0.722221
vt 0.825887 0.722221
vt 0.014892 0.762909
vt 0.014892 0.570471
vt 0.207330 0.570471
vt 0.207330 0.762909
vt 0.270331 0.570471
vt 0.270331 0.762909
vt 0.258304 0.762909
vt 0.258304 0.570471
vt 0.898052 0.914658
vt 0.898052 0.722221
vt 0.910079 0.722221
vt 0.910079 0.914658
vt 0.207330 0.555579
vt 0.222222 0.570471
vt 0.000000 0.570471
vt 0.014892 0.555579
vt 0.222222 0.762909
vt 0.207330 0.777801
vt 0.000000 0.762909
vt 0.014892 0.777801
vt 0.825887 0.929551
vt 0.813860 0.929551
vt 0.270331 0.777801
vt 0.258304 0.777801
vt 0.258304 0.555579
vt 0.270331 0.555579
vt 0.893500 0.000000
vt 0.893499 0.014908
vt 0.881472 0.014908
vt 0.881473 0.000000
vt 0.893500 0.207345
vt 0.881473 0.207345
vt 0.235107 0.527801
vt 0.254277 0.555579
vt 0.023500 0.555579
vt 0.000000 0.532079
vt 0.027778 0.512909
vt 0.042670 0.527801
vt 0.000000 0.301302
vt 0.023500 0.277802
vt 0.254278 0.277802
vt 0.250000 0.512909
vt 0.250000 0.320472
vt 0.235107 0.305579
vt 0.042670 0.305579
vt 0.027778 0.320472
vt 0.869444 0.000000
vt 0.881472 0.000001
vt 0.881457 0.192438
vt 0.869430 0.192437
vt 0.762886 0.929551
vt 0.570448 0.929551
vt 0.570448 0.737113
vt 0.762886 0.737113
vt 0.922106 0.914658
vt 0.910079 0.914658
vt 0.910079 0.722221
vt 0.922106 0.722221
vt 0.845361 0.207330
vt 0.833334 0.207330
vt 0.833334 0.014892
vt 0.845361 0.014892
vt 0.555556 0.737113
vt 0.570448 0.722221
vt 0.570448 0.944443
vt 0.555556 0.929551
vt 0.762886 0.722221
vt 0.777778 0.737113
vt 0.762886 0.944443
vt 0.777778 0.929551
vt 0.837915 0.737113
vt 0.825887 0.737113
vt 0.825887 0.722221
vt 0.837915 0.722221
vt 0.845361 0.222222
vt 0.833334 0.222222
vt 0.881472 0.207331
vt 0.869444 0.207331
vt 0.833334 0.000000
vt 0.845361 0.000000
vt 0.837915 0.929551
vt 0.825887 0.929551
vt 0.809834 0.277777
vt 0.579056 0.277777
vt 0.555556 0.254277
vt 0.555556 0.023500
vt 0.579056 0.000000
vt 0.809834 0.000000
vt 0.833334 0.023500
vt 0.805556 0.042670
vt 0.790664 0.027778
vt 0.598226 0.027778
vt 0.583334 0.042670
vt 0.583334 0.235107
vt 0.598226 0.250000
vt 0.790664 0.250000
vt 0.833334 0.254278
vt 0.805556 0.235107
vn 0.5774 0.5774 -0.5774
vn 0.5774 -0.5774 -0.5774
vn 0.5774 0.5774 0.5774
vn 0.5774 -0.5774 0.5774
vn -0.5774 0.5774 -0.5774
vn -0.5774 -0.5774 -0.5774
vn -0.5774 0.5774 0.5774
vn -0.5774 -0.5774 0.5774
vn 0.0000 1.0000 0.0000
vn 0.0000 0.0000 -1.0000
vn 0.0000 -1.0000 0.0000
vn -1.0000 0.0000 0.0000
vn -0.9847 -0.1231 0.1231
vn -0.9847 0.1231 0.1231
vn -0.9847 -0.1231 -0.1231
vn -0.9847 0.1231 -0.1231
vn 0.0000 0.7071 0.7071
vn -0.9923 0.0000 0.1240
vn -0.9923 0.0000 -0.1240
vn 0.0000 -0.7071 -0.7071
vn -0.9923 -0.1240 0.0000
vn 0.0000 0.7071 -0.7071
vn 0.0000 -0.7071 0.7071
vn -0.9923 0.1240 0.0000
vn 0.0000 0.0000 1.0000
vn 0.9999 -0.0156 -0.0010
vn -0.1231 0.9847 0.1231
vn 0.1231 0.9847 0.1231
vn -0.1231 0.9847 -0.1231
vn 0.1231 0.9847 -0.1231
vn 0.7071 0.0000 0.7071
vn 0.0000 0.9923 0.1240
vn 0.0000 0.9923 -0.1240
vn -0.7071 0.0000 -0.7071
vn -0.1240 0.9923 0.0000
vn 0.7151 -0.0203 -0.6987
vn -0.7071 0.0000 0.7071
vn 0.1240 0.9923 0.0000
vn 0.1231 -0.1231 0.9847
vn 0.1231 0.1231 0.9847
vn -0.1231 -0.1231 0.9847
vn -0.1231 0.1231 0.9847
vn 0.7071 0.7071 0.0000
vn 0.1240 0.0000 0.9923
vn -0.1240 0.0000 0.9923
vn -0.7071 -0.7071 0.0000
vn 0.0000 -0.1240 0.9923
vn -0.7071 0.7071 0.0000
vn 0.7071 -0.7071 0.0000
vn 0.0000 0.1240 0.9923
vn 1.0000 0.0000 0.0000
vn 0.9847 -0.1231 0.1231
vn 0.9847 0.1231 0.1231
vn 0.9847 -0.1231 -0.1231
vn 0.9847 0.1231 -0.1231
vn 0.9923 0.0000 0.1240
vn 0.9923 0.0000 -0.1240
vn 0.9923 -0.1240 0.0000
vn 0.9923 0.1240 0.0000
vn 0.1231 -0.1231 -0.9847
vn 0.1231 0.1231 -0.9847
vn -0.1231 -0.1231 -0.9847
vn -0.1231 0.1231 -0.9847
vn 0.0000 0.1240 -0.9923
vn -0.1240 0.0000 -0.9923
vn 0.1240 0.0000 -0.9923
vn 0.0000 -0.1240 -0.9923
vn -0.1231 -0.9847 0.1231
vn 0.1231 -0.9847 0.1231
vn -0.1231 -0.9847 -0.1231
vn 0.1231 -0.9847 -0.1231
vn 0.1240 -0.9923 0.0000
vn 0.0000 -0.9923 -0.1240
vn 0.0000 -0.9923 0.1240
vn 0.7071 0.0000 -0.7071
vn -0.1240 -0.9923 0.0000
g Cube_Cube.001_Material.001
usemtl Material.001
s off
f 73/1/1 74/2/1 75/3/1
f 76/4/2 77/5/2 78/6/2
f 79/7/3 80/8/3 81/9/3
f 82/10/4 83/11/4 84/12/4
f 85/13/5 86/14/5 87/15/5
f 88/16/6 89/17/6 90/18/6
f 91/19/7 92/20/7 93/21/7
f 94/22/8 95/23/8 96/24/8
f 72/25/9 64/26/9 97/27/9 98/28/9
f 100/29/10 69/30/10 71/31/10 99/32/10
f 62/33/11 68/34/11 102/35/11 101/36/11
f 63/37/12 66/38/12 70/39/12 67/40/12
f 61/41/13 63/37/13 62/42/13
f 64/43/14 66/38/14 65/44/14
f 67/40/15 69/45/15 68/46/15
f 70/39/16 72/47/16 71/48/16
f 64/49/17 65/50/17 103/51/17 97/52/17
f 63/37/18 61/41/18 65/44/18 66/38/18
f 69/45/19 67/40/19 70/39/19 71/48/19
f 68/53/20 69/30/20 100/29/20 102/54/20
f 62/42/21 63/37/21 67/40/21 68/46/21
f 71/55/22 72/25/22 98/28/22 99/56/22
f 61/57/23 62/58/23 101/59/23 104/60/23
f 64/43/24 72/47/24 70/39/24 66/38/24
f 103/51/25 65/50/25 61/57/25 104/60/25
f 104/61/12 85/13/12 88/16/12 90/18/12 97/62/12 103/63/12
f 97/62/12 90/18/12 96/24/12 95/23/12 91/19/12 93/21/12 86/14/12 85/13/12 104/61/12 101/64/12 102/65/12 100/66/12 99/67/12 98/68/12
f 106/69/26 60/70/26 52/71/26 105/72/26
f 57/73/10 59/74/10 107/75/10 108/76/10
f 50/77/12 56/78/12 110/79/12 109/80/12
f 51/81/9 54/82/9 58/83/9 55/84/9
f 49/85/27 51/81/27 50/86/27
f 52/87/28 54/82/28 53/88/28
f 55/84/29 57/89/29 56/90/29
f 58/83/30 60/91/30 59/92/30
f 105/93/31 52/94/31 53/95/31 111/96/31
f 51/81/32 49/85/32 53/88/32 54/82/32
f 57/89/33 55/84/33 58/83/33 59/92/33
f 56/78/34 57/97/34 108/98/34 110/79/34
f 50/86/35 51/81/35 55/84/35 56/90/35
f 59/99/36 60/70/36 106/69/36 107/100/36
f 112/101/37 49/102/37 50/77/37 109/80/37
f 52/87/38 60/91/38 58/83/38 54/82/38
f 111/96/25 53/95/25 49/103/25 112/104/25
f 79/7/9 74/2/9 73/1/9 87/105/9 86/14/9 93/21/9 92/106/9 107/107/9 106/108/9 105/109/9 111/110/9 112/111/9 109/112/9 110/113/9
f 107/107/9 92/106/9 80/8/9 79/7/9 110/113/9 108/114/9
f 114/115/9 48/116/9 40/117/9 113/118/9
f 116/119/12 45/120/12 47/121/12 115/122/12
f 117/123/11 38/124/11 44/125/11 118/126/11
f 39/127/25 42/128/25 46/129/25 43/130/25
f 37/131/39 39/127/39 38/132/39
f 40/133/40 42/128/40 41/134/40
f 43/130/41 45/135/41 44/136/41
f 46/129/42 48/137/42 47/138/42
f 113/118/43 40/117/43 41/139/43 119/140/43
f 39/127/44 37/131/44 41/134/44 42/128/44
f 45/135/45 43/130/45 46/129/45 47/138/45
f 118/141/46 44/142/46 45/120/46 116/119/46
f 38/132/47 39/127/47 43/130/47 44/136/47
f 115/122/48 47/121/48 48/143/48 114/144/48
f 120/145/49 37/146/49 38/147/49 117/148/49
f 40/133/50 48/137/50 46/129/50 42/128/50
f 119/149/51 41/150/51 37/146/51 120/145/51
f 120/151/25 91/152/25 95/153/25 94/154/25 113/155/25 119/156/25
f 113/155/25 94/154/25 83/157/25 82/158/25 81/159/25 80/160/25 92/161/25 91/152/25 120/151/25 117/162/25 118/163/25 116/164/25 115/165/25 114/166/25
f 28/167/9 36/168/9 122/169/9 121/170/9
f 123/171/10 35/172/10 33/173/10 124/174/10
f 32/175/11 26/176/11 125/177/11 126/178/11
f 30/179/51 27/180/51 31/181/51 34/182/51
f 25/183/52 26/184/52 27/180/52
f 28/185/53 29/186/53 30/179/53
f 31/181/54 32/187/54 33/188/54
f 34/182/55 35/189/55 36/190/55
f 29/191/17 28/192/17 121/193/17 127/194/17
f 25/183/56 27/180/56 30/179/56 29/186/56
f 31/181/57 33/188/57 35/189/57 34/182/57
f 33/173/20 32/195/20 126/196/20 124/174/20
f 27/180/58 26/184/58 32/187/58 31/181/58
f 36/168/22 35/197/22 123/198/22 122/169/22
f 26/199/23 25/200/23 128/201/23 125/202/23
f 36/190/59 28/185/59 30/179/59 34/182/59
f 128/201/25 25/200/25 29/191/25 127/194/25
f 124/203/51 81/204/51 82/10/51 84/12/51 122/205/51 123/206/51
f 122/205/51 84/12/51 78/6/51 77/5/51 75/207/51 74/208/51 79/209/51 81/204/51 124/203/51 126/210/51 125/211/51 128/212/51 127/213/51 121/214/51
f 129/215/9 18/216/9 22/217/9 130/218/9
f 24/219/10 16/220/10 14/221/10 19/222/10
f 23/223/12 20/224/12 132/225/12 131/226/12
f 21/227/11 15/228/11 133/229/11 134/230/11
f 13/231/60 15/232/60 14/221/60
f 16/220/61 18/233/61 17/234/61
f 19/222/62 21/235/62 20/236/62
f 22/237/63 24/219/63 23/238/63
f 18/233/64 16/220/64 24/219/64 22/237/64
f 135/239/43 17/240/43 18/216/43 129/215/43
f 20/236/65 23/238/65 24/219/65 19/222/65
f 13/231/66 14/221/66 16/220/66 17/234/66
f 20/224/46 21/241/46 134/242/46 132/225/46
f 130/243/48 22/244/48 23/223/48 131/226/48
f 15/232/67 21/235/67 19/222/67 14/221/67
f 15/245/49 13/246/49 136/247/49 133/248/49
f 13/246/51 17/249/51 135/250/51 136/247/51
f 132/251/10 75/252/10 77/253/10 76/254/10 130/255/10 131/256/10
f 130/255/10 76/254/10 89/257/10 88/258/10 85/259/10 87/105/10 73/1/10 75/252/10 132/251/10 134/260/10 133/261/10 136/262/10 135/263/10 129/264/10
f 137/265/51 6/266/51 10/267/51 138/268/51
f 12/269/11 4/270/11 2/271/11 7/272/11
f 139/273/10 11/274/10 8/275/10 140/276/10
f 142/277/12 9/278/12 3/279/12 141/280/12
f 1/281/68 3/282/68 2/271/68
f 4/270/69 6/283/69 5/284/69
f 7/272/70 9/285/70 8/286/70
f 10/287/71 12/269/71 11/288/71
f 6/283/72 4/270/72 12/269/72 10/287/72
f 143/289/31 5/290/31 6/291/31 137/292/31
f 8/286/73 11/288/73 12/269/73 7/272/73
f 1/281/74 2/271/74 4/270/74 5/284/74
f 140/293/34 8/294/34 9/278/34 142/277/34
f 138/268/75 10/267/75 11/295/75 139/296/75
f 3/282/76 9/285/76 7/272/76 2/271/76
f 141/280/37 3/279/37 1/297/37 144/298/37
f 144/299/25 1/300/25 5/290/25 143/289/25
f 96/301/11 90/302/11 89/303/11 76/304/11 78/305/11 84/306/11 83/307/11 140/308/11 142/309/11 141/310/11 144/311/11 143/312/11 137/313/11 138/314/11
f 83/307/11 94/315/11 96/301/11 138/314/11 139/316/11 140/308/11
