# Blender v2.92.0 OBJ File: 'Cube_Word_RaidersA.blend'
# www.blender.org
mtllib Cube_Word_RaidersR.mtl
o Cube_Cube.001
v 0.692775 -0.913403 -0.800000
v 0.692775 -0.900000 -0.692775
v 0.800000 -0.913403 -0.692775
v -0.692775 -0.900000 -0.692775
v -0.692775 -0.913403 -0.800000
v -0.800000 -0.913403 -0.692775
v 0.692775 -0.900000 0.692775
v 0.692775 -0.913403 0.800000
v 0.800000 -0.913403 0.692775
v -0.800000 -0.913403 0.692775
v -0.692775 -0.913403 0.800000
v -0.692775 -0.900000 0.692775
v -0.800000 0.692775 -0.913403
v -0.692775 0.692775 -0.900000
v -0.692775 0.800000 -0.913403
v -0.692775 -0.692775 -0.900000
v -0.800000 -0.692775 -0.913403
v -0.692775 -0.800000 -0.913403
v 0.692775 0.692775 -0.900000
v 0.800000 0.692775 -0.913403
v 0.692775 0.800000 -0.913403
v 0.692775 -0.800000 -0.913403
v 0.800000 -0.692775 -0.913403
v 0.692775 -0.692775 -0.900000
v 0.913403 0.692775 -0.800000
v 0.913403 0.800000 -0.692775
v 0.900000 0.692775 -0.692775
v 0.913403 -0.800000 -0.692775
v 0.913403 -0.692775 -0.800000
v 0.900000 -0.692775 -0.692775
v 0.900000 0.692775 0.692775
v 0.913403 0.800000 0.692775
v 0.913403 0.692775 0.800000
v 0.900000 -0.692775 0.692775
v 0.913403 -0.692775 0.800000
v 0.913403 -0.800000 0.692775
v -0.800000 0.692775 0.913403
v -0.692775 0.800000 0.913403
v -0.692775 0.692775 0.900000
v -0.692775 -0.800000 0.913403
v -0.800000 -0.692775 0.913403
v -0.692775 -0.692775 0.900000
v 0.692775 0.692775 0.900000
v 0.692775 0.800000 0.913403
v 0.800000 0.692775 0.913403
v 0.692775 -0.692775 0.900000
v 0.800000 -0.692775 0.913403
v 0.692775 -0.800000 0.913403
v 0.692775 0.913403 -0.800000
v 0.800000 0.913403 -0.692775
v 0.692775 0.900000 -0.692775
v -0.800000 0.913403 -0.692775
v -0.692775 0.913403 -0.800000
v -0.692775 0.900000 -0.692775
v 0.692775 0.900000 0.692775
v 0.800000 0.913403 0.692775
v 0.692775 0.913403 0.800000
v -0.692775 0.900000 0.692775
v -0.692775 0.913403 0.800000
v -0.800000 0.913403 0.692775
v -0.913403 0.692775 -0.800000
v -0.913403 0.800000 -0.692775
v -0.900000 0.692775 -0.692775
v -0.913403 -0.800000 -0.692775
v -0.913403 -0.692775 -0.800000
v -0.900000 -0.692775 -0.692775
v -0.900000 0.692775 0.692775
v -0.913403 0.800000 0.692775
v -0.913403 0.692775 0.800000
v -0.900000 -0.692775 0.692775
v -0.913403 -0.692775 0.800000
v -0.913403 -0.800000 0.692775
v 0.830801 1.000000 -1.000000
v 1.000000 1.000000 -0.830801
v 1.000000 0.830801 -1.000000
v 0.830801 -1.000000 -1.000000
v 1.000000 -0.830801 -1.000000
v 1.000000 -1.000000 -0.830801
v 1.000000 1.000000 0.830801
v 0.830801 1.000000 1.000000
v 1.000000 0.830801 1.000000
v 1.000000 -0.830801 1.000000
v 0.832743 -1.005834 1.002486
v 1.000000 -1.000000 0.830801
v -1.000000 0.830801 -1.000000
v -1.000000 1.000000 -0.830801
v -0.830801 1.000000 -1.000000
v -1.000000 -0.830801 -1.000000
v -0.830801 -1.000000 -1.000000
v -1.000000 -1.000000 -0.830801
v -1.000000 0.830801 1.000000
v -0.830801 1.000000 1.000000
v -1.000000 1.000000 0.830801
v -0.830801 -1.000000 1.000000
v -1.000000 -0.830801 1.000000
v -1.000000 -1.000000 0.830801
v -1.000000 -0.800000 -0.692775
v -1.000000 -0.800000 0.692775
v -1.000000 -0.692775 0.800000
v -1.000000 0.692775 0.800000
v -1.000000 0.800000 -0.692775
v -1.000000 0.800000 0.692775
v -1.000000 -0.692775 -0.800000
v -1.000000 0.692775 -0.800000
v -0.800000 1.000000 -0.692775
v -0.797305 0.999957 0.690508
v -0.692775 1.000000 0.800000
v 0.692775 1.000000 0.800000
v 0.800000 1.000000 -0.692775
v 0.800000 1.000000 0.692775
v -0.692775 1.000000 -0.800000
v 0.692775 1.000000 -0.800000
v -0.692775 -0.800000 1.000000
v 0.692775 -0.800000 1.000000
v 0.800000 -0.692775 1.000000
v 0.800000 0.692775 1.000000
v -0.692775 0.800000 1.000000
v 0.692775 0.800000 1.000000
v -0.800000 -0.692775 1.000000
v -0.800000 0.692775 1.000000
v 1.000000 -0.800000 -0.692775
v 1.000000 -0.800000 0.692775
v 1.000000 -0.692775 0.800000
v 1.000000 0.692775 0.800000
v 1.000000 0.800000 -0.692775
v 1.000000 0.800000 0.692775
v 1.000000 -0.692775 -0.800000
v 1.000000 0.692775 -0.800000
v -0.692775 -0.800000 -1.000000
v 0.692775 -0.800000 -1.000000
v 0.800000 -0.692775 -1.000000
v 0.800000 0.692775 -1.000000
v -0.692775 0.800000 -1.000000
v 0.692775 0.800000 -1.000000
v -0.800000 -0.692775 -1.000000
v -0.800000 0.692775 -1.000000
v -0.800000 -1.000000 -0.692775
v -0.800000 -1.000000 0.692775
v -0.692775 -1.000000 0.800000
v 0.692775 -1.000000 0.800000
v 0.800000 -1.000000 -0.692775
v 0.800000 -1.000000 0.692775
v -0.692775 -1.000000 -0.800000
v 0.692775 -1.000000 -0.800000
vt 0.014052 0.000140
vt 0.000102 0.014288
vt 0.000102 0.000140
vt 0.014052 0.000140
vt 0.000102 0.000140
vt 0.000102 0.014288
vt 0.000102 0.153228
vt 0.014052 0.167376
vt 0.000102 0.167376
vt 0.164887 0.153088
vt 0.165092 0.167724
vt 0.150938 0.167237
vt 0.164990 0.000140
vt 0.164990 0.014288
vt 0.151040 0.000140
vt 0.164990 0.000140
vt 0.151040 0.000140
vt 0.164990 0.014288
vt 0.164990 0.167376
vt 0.151040 0.167376
vt 0.164990 0.153228
vt 0.151040 0.167376
vt 0.164990 0.167376
vt 0.164990 0.153228
vt 0.157850 0.025830
vt 0.164990 0.141687
vt 0.157850 0.141687
vt 0.157850 0.025690
vt 0.164990 0.141547
vt 0.164990 0.025690
vt 0.157850 0.141687
vt 0.164990 0.025830
vt 0.157850 0.025830
vt 0.834201 0.500716
vt 1.000000 0.667383
vt 0.833333 0.667383
vt 0.016489 0.025690
vt 0.025329 0.025690
vt 0.025329 0.016724
vt 0.025329 0.150513
vt 0.025329 0.141547
vt 0.016489 0.141547
vt 0.139558 0.025690
vt 0.148398 0.025690
vt 0.139558 0.016724
vt 0.139558 0.141547
vt 0.139558 0.150513
vt 0.148398 0.141547
vt 0.157850 0.016864
vt 0.164990 0.025830
vt 0.157850 0.150653
vt 0.164990 0.141687
vt 0.164990 0.150653
vt 0.157850 0.150653
vt 0.164990 0.016864
vt 0.157850 0.016864
vt 0.157850 0.141547
vt 0.164990 0.025690
vt 0.164990 0.141547
vt 0.013949 0.167237
vt 0.025329 0.150513
vt 0.016489 0.141547
vt 0.150938 -0.000000
vt 0.139558 0.016724
vt 0.148398 0.025690
vt 0.139372 0.000004
vt 0.025329 0.007241
vt 0.025329 -0.000000
vt 0.139661 0.007241
vt 0.025431 -0.000000
vt 0.025431 0.007241
vt 0.139558 0.007241
vt 0.025329 -0.000000
vt 0.025329 0.007241
vt 0.833333 0.667383
vt 1.000000 0.500716
vt 1.000000 0.667383
vt 0.025431 0.016864
vt 0.025431 0.025830
vt 0.016591 0.025830
vt 0.148501 0.025830
vt 0.139661 0.025830
vt 0.139661 0.016864
vt 0.025431 0.141687
vt 0.025431 0.150653
vt 0.016591 0.141687
vt 0.139661 0.141687
vt 0.148501 0.141687
vt 0.139661 0.150653
vt 0.148501 0.007241
vt 0.139661 -0.000000
vt 0.148501 -0.000000
vt 0.016591 -0.000000
vt 0.016591 0.007241
vt 0.148398 0.007241
vt 0.148398 -0.000000
vt 0.025431 0.007241
vt 0.016591 -0.000000
vt 0.025431 -0.000000
vt 0.139661 0.007241
vt 0.139661 0.016864
vt 0.025431 0.016864
vt 0.016591 0.141687
vt 0.025431 0.150653
vt 0.025431 0.160135
vt 0.139661 0.167376
vt 0.025431 0.167376
vt 0.157748 0.025690
vt 0.164887 0.141547
vt 0.164887 0.025690
vt 0.139661 0.160135
vt 0.025431 0.167376
vt 0.139661 0.167376
vt 0.833333 0.500716
vt 1.000000 0.667383
vt 0.833333 0.667383
vt 0.148501 0.025690
vt 0.139661 0.025690
vt 0.139661 0.016724
vt 0.139661 0.150513
vt 0.139661 0.141547
vt 0.148501 0.141547
vt 0.025431 0.025690
vt 0.016591 0.025690
vt 0.025431 0.016724
vt 0.025431 0.141547
vt 0.025431 0.150513
vt 0.016591 0.141547
vt 0.139661 0.160135
vt 0.148501 0.167376
vt 0.025431 0.160135
vt 0.016591 0.167376
vt 0.016591 0.160135
vt 0.016591 0.167376
vt 0.148501 0.160135
vt 0.148501 0.167376
vt 0.157748 0.141547
vt 0.164887 0.025690
vt 0.164887 0.141547
vt 0.151040 0.167237
vt 0.139661 0.150513
vt 0.148501 0.141547
vt 0.014052 -0.000000
vt 0.025431 0.016724
vt 0.016591 0.025690
vt 0.007242 0.141687
vt 0.000102 0.025830
vt 0.007242 0.025830
vt 0.007242 0.141547
vt 0.000102 0.025690
vt 0.000102 0.141547
vt 0.007242 0.025830
vt 0.000102 0.141687
vt 0.007242 0.141687
vt 1.000000 0.667383
vt 0.833333 0.500716
vt 1.000000 0.500716
vt 0.016489 0.025690
vt 0.025329 0.016724
vt 0.025329 0.025690
vt 0.025329 0.150513
vt 0.016489 0.141547
vt 0.025329 0.141547
vt 0.139558 0.025690
vt 0.139558 0.016724
vt 0.148398 0.025690
vt 0.139558 0.141547
vt 0.148398 0.141547
vt 0.139558 0.150513
vt 0.000102 0.016864
vt 0.007242 0.016864
vt 0.000102 0.150653
vt 0.007242 0.150653
vt 0.007242 0.150653
vt 0.000102 0.141687
vt 0.007242 0.016864
vt 0.000102 0.025830
vt 0.007242 0.025690
vt 0.000102 0.141547
vt 0.000102 0.025690
vt 0.139558 0.150513
vt 0.148398 0.141547
vt 0.013949 -0.000000
vt 0.025329 0.016724
vt 0.016489 0.025690
vt 0.139661 0.007381
vt 0.025431 0.000140
vt 0.139661 0.000140
vt 1.000000 0.667383
vt 0.833333 0.500716
vt 0.833333 0.667383
vt 0.007139 0.025690
vt 0.000000 0.141547
vt 0.007139 0.141547
vt 0.139661 0.007381
vt 0.025431 0.000140
vt 0.025431 0.007381
vt 0.148501 0.025690
vt 0.139661 0.016724
vt 0.139661 0.025690
vt 0.139661 0.141547
vt 0.139661 0.150513
vt 0.148501 0.141547
vt 0.025431 0.025690
vt 0.025431 0.016724
vt 0.016591 0.025690
vt 0.025431 0.150513
vt 0.025431 0.141547
vt 0.016591 0.141547
vt 0.148501 0.007381
vt 0.148501 0.000140
vt 0.016591 0.000140
vt 0.016591 0.007381
vt 0.025431 0.007381
vt 0.016591 0.000140
vt 0.148501 0.007381
vt 0.139661 0.000140
vt 0.007139 0.141547
vt 0.000000 0.025690
vt 0.007139 0.025690
vt 0.014052 0.167237
vt 0.025431 0.150513
vt 0.016591 0.141547
vt 0.151040 -0.000000
vt 0.139661 0.016724
vt 0.148501 0.025690
vt 0.025329 0.159995
vt 0.139558 0.167237
vt 0.025329 0.167237
vt 0.833333 0.667383
vt 1.000000 0.500716
vt 0.833333 0.500716
vt 0.139661 0.159995
vt 0.025431 0.167237
vt 0.139661 0.167237
vt 0.139558 0.159995
vt 0.025329 0.167237
vt 0.139558 0.167237
vt 0.025431 0.016864
vt 0.016591 0.025830
vt 0.025431 0.025830
vt 0.139661 0.025830
vt 0.148501 0.025830
vt 0.139661 0.016864
vt 0.025431 0.141687
vt 0.016591 0.141687
vt 0.025431 0.150653
vt 0.148501 0.141687
vt 0.139661 0.141687
vt 0.139661 0.150653
vt 0.139661 0.159995
vt 0.148501 0.167237
vt 0.139661 0.167237
vt 0.025431 0.159995
vt 0.016591 0.167237
vt 0.148501 0.159995
vt 0.148501 0.167237
vt 0.016591 0.159995
vt 0.025431 0.167237
vt 0.016591 0.167237
vt 0.025431 0.159995
vt 0.025431 0.016864
vt 0.139661 0.016864
vt 0.148501 0.141687
vt 0.139661 0.150653
vt 0.157850 0.141547
vt 1.000000 0.500716
vt 0.164990 0.016864
vt 0.164990 0.150653
vt 0.157850 0.025690
vt 0.016489 0.025690
vt 0.000000 0.014148
vt 0.000000 0.153088
vt 0.139558 0.150513
vt 0.150938 0.167237
vt 0.164887 0.153088
vt 0.164887 0.014148
vt 0.013949 -0.000000
vt 0.025329 0.016724
vt 0.148398 0.141547
vt 0.139558 0.007241
vt 0.139661 -0.000000
vt 0.139558 -0.000000
vt 0.833333 0.500716
vt 0.016591 0.007241
vt 0.148501 0.025830
vt 0.148279 0.141497
vt 0.139661 0.150653
vt 0.016591 0.025830
vt 0.157748 0.141547
vt 1.000000 0.500716
vt 0.148501 0.160135
vt 0.016591 0.160135
vt 0.157748 0.025690
vt 0.148501 0.025690
vt 0.164990 0.014148
vt 0.164990 0.153088
vt 0.025431 0.150513
vt 0.013892 0.167724
vt 0.000102 0.153088
vt 0.000102 0.014148
vt 0.151040 -0.000000
vt 0.139661 0.016724
vt 0.016591 0.141547
vt 0.007242 0.025690
vt 0.833333 0.667383
vt 0.000102 0.150653
vt 0.000102 0.016864
vt 0.007242 0.141547
vt 0.148398 0.025690
vt 0.164887 0.014148
vt 0.025329 0.150513
vt 0.013949 0.167237
vt 0.000000 0.153088
vt 0.000000 0.014148
vt 0.150938 -0.000000
vt 0.139558 0.016724
vt 0.016489 0.141547
vt 1.000000 0.500716
vt 0.000000 0.025690
vt 0.016591 0.007381
vt 0.148501 0.000140
vt 0.000000 0.141547
vt 0.016591 0.025690
vt 0.000102 0.014148
vt 0.000102 0.153088
vt 0.139661 0.150513
vt 0.151040 0.167237
vt 0.164990 0.153088
vt 0.164990 0.014148
vt 0.014052 -0.000000
vt 0.025431 0.016724
vt 0.148501 0.141547
vt 0.139558 0.159995
vt 1.000000 0.667383
vt 0.025329 0.159995
vt 0.148501 0.159995
vt 0.016591 0.159995
vt 0.148501 0.025830
vt 0.016591 0.025830
vt 0.000102 0.153228
vt 0.016591 0.141687
vt 0.013892 0.167584
vt 0.025431 0.150653
vn 0.5774 0.5774 -0.5774
vn 0.5774 -0.5774 -0.5774
vn 0.5774 0.5774 0.5774
vn 0.6003 -0.5656 0.5656
vn -0.5774 0.5774 -0.5774
vn -0.5774 -0.5774 -0.5774
vn -0.5774 0.5774 0.5774
vn -0.5774 -0.5774 0.5774
vn 0.0000 1.0000 0.0000
vn 0.0000 0.0000 -1.0000
vn 0.0000 -1.0000 0.0000
vn -1.0000 0.0000 0.0000
vn -0.9847 -0.1231 0.1231
vn -0.9847 0.1231 0.1231
vn -0.9847 -0.1231 -0.1231
vn -0.9847 0.1231 -0.1231
vn 0.0000 0.7071 0.7071
vn -0.9923 0.0000 0.1240
vn -0.9923 0.0000 -0.1240
vn 0.0000 -0.7071 -0.7071
vn -0.9923 -0.1240 0.0000
vn 0.0000 0.7071 -0.7071
vn 0.0000 -0.7071 0.7071
vn -0.9923 0.1240 0.0000
vn 0.0000 0.0000 1.0000
vn 1.0000 0.0000 -0.0019
vn -0.1231 0.9847 0.1231
vn 0.1231 0.9847 0.1231
vn -0.1231 0.9847 -0.1231
vn 0.1231 0.9847 -0.1231
vn 0.7071 0.0000 0.7071
vn 0.0000 0.9923 0.1240
vn 0.0000 0.9923 -0.1240
vn -0.7071 0.0000 -0.7071
vn -0.1240 0.9923 0.0000
vn 0.7233 0.0000 -0.6905
vn -0.7071 0.0000 0.7071
vn 0.1240 0.9923 0.0000
vn 0.1231 -0.1231 0.9847
vn 0.1231 0.1231 0.9847
vn -0.1231 -0.1231 0.9847
vn -0.1231 0.1231 0.9847
vn 0.7071 0.7071 0.0000
vn 0.1240 0.0000 0.9923
vn -0.1240 0.0000 0.9923
vn -0.7071 -0.7071 0.0000
vn 0.0000 -0.1240 0.9923
vn -0.7071 0.7071 0.0000
vn 0.7071 -0.7071 0.0000
vn 0.0000 0.1240 0.9923
vn 1.0000 0.0000 0.0000
vn 0.9847 -0.1231 0.1231
vn 0.9847 0.1231 0.1231
vn 0.9847 -0.1231 -0.1231
vn 0.9847 0.1231 -0.1231
vn 0.9923 0.0000 0.1240
vn 0.9923 0.0000 -0.1240
vn 0.9923 -0.1240 0.0000
vn 0.9923 0.1240 0.0000
vn 0.1231 -0.1231 -0.9847
vn 0.1231 0.1231 -0.9847
vn -0.1231 -0.1231 -0.9847
vn -0.1231 0.1231 -0.9847
vn 0.0000 0.1240 -0.9923
vn -0.1240 0.0000 -0.9923
vn 0.1240 0.0000 -0.9923
vn 0.0000 -0.1240 -0.9923
vn -0.1231 -0.9847 0.1231
vn 0.1231 -0.9847 0.1231
vn -0.1231 -0.9847 -0.1231
vn 0.1231 -0.9847 -0.1231
vn 0.1240 -0.9923 0.0000
vn 0.0000 -0.9923 -0.1240
vn 0.0000 -0.9923 0.1240
vn 0.7071 0.0000 -0.7071
vn -0.1240 -0.9923 0.0000
vn 0.9995 -0.0311 0.0000
vn 0.7065 -0.0405 -0.7065
vn 0.0002 1.0000 0.0000
vn -0.0000 1.0000 -0.0004
vn 0.0000 0.0121 0.9999
vn -0.0015 0.0010 1.0000
vn 0.0013 0.0130 0.9999
vn 0.0031 -0.9995 -0.0309
vn -0.0035 -0.9996 -0.0264
g Cube_Cube.001_Material
usemtl Material
s off
f 73/1/1 74/2/1 75/3/1
f 76/4/2 77/5/2 78/6/2
f 79/7/3 80/8/3 81/9/3
f 82/10/4 83/11/4 84/12/4
f 85/13/5 86/14/5 87/15/5
f 88/16/6 89/17/6 90/18/6
f 91/19/7 92/20/7 93/21/7
f 94/22/8 95/23/8 96/24/8
f 64/25/9 98/26/9 72/27/9
f 69/28/10 99/29/10 100/30/10
f 68/31/11 101/32/11 62/33/11
f 66/34/12 67/35/12 63/36/12
f 61/37/13 63/38/13 62/39/13
f 64/40/14 66/41/14 65/42/14
f 67/43/15 69/44/15 68/45/15
f 70/46/16 72/47/16 71/48/16
f 65/49/17 97/50/17 64/25/17
f 61/37/18 66/41/18 63/38/18
f 67/43/19 71/48/19 69/44/19
f 69/51/20 102/52/20 68/31/20
f 63/38/21 68/45/21 62/39/21
f 72/27/22 99/53/22 71/54/22
f 62/33/23 104/55/23 61/56/23
f 72/47/24 66/41/24 64/40/24
f 65/57/25 104/58/25 103/59/25
f 90/60/12 97/61/12 103/62/12
f 93/63/12 102/64/12 100/65/12
f 106/66/26 52/67/26 105/68/26
f 59/69/10 108/70/10 57/71/10
f 56/72/12 109/73/12 50/74/12
f 54/75/9 55/76/9 51/77/9
f 49/78/27 51/79/27 50/80/27
f 52/81/28 54/82/28 53/83/28
f 55/84/29 57/85/29 56/86/29
f 58/87/30 60/88/30 59/89/30
f 52/90/31 111/91/31 105/92/31
f 49/78/32 54/82/32 51/79/32
f 55/84/33 59/89/33 57/85/33
f 57/71/34 110/93/34 56/94/34
f 51/79/35 56/86/35 50/80/35
f 59/95/36 106/66/36 107/96/36
f 49/97/37 109/98/37 112/99/37
f 60/88/38 54/82/38 52/81/38
f 53/100/25 112/99/25 111/91/25
f 87/15/9 111/101/9 112/102/9
f 79/7/9 110/103/9 108/104/9
f 48/105/9 113/106/9 114/107/9
f 45/108/12 115/109/12 116/110/12
f 38/111/11 118/112/11 117/113/11
f 42/114/25 43/115/25 39/116/25
f 37/117/39 39/118/39 38/119/39
f 40/120/40 42/121/40 41/122/40
f 43/123/41 45/124/41 44/125/41
f 46/126/42 48/127/42 47/128/42
f 40/129/43 119/130/43 113/106/43
f 37/117/44 42/121/44 39/118/44
f 43/123/45 47/128/45 45/124/45
f 44/131/46 116/132/46 118/112/46
f 39/118/47 44/125/47 38/119/47
f 47/133/48 114/107/48 115/134/48
f 37/135/49 117/113/49 120/136/49
f 48/127/50 42/121/50 40/120/50
f 41/137/51 120/138/51 119/139/51
f 94/140/25 113/141/25 119/142/25
f 80/143/25 118/144/25 116/145/25
f 36/146/9 121/147/9 28/148/9
f 35/149/10 124/150/10 123/151/10
f 26/152/11 126/153/11 32/154/11
f 27/155/51 34/156/51 30/157/51
f 25/158/52 26/159/52 27/160/52
f 28/161/53 29/162/53 30/163/53
f 31/164/54 32/165/54 33/166/54
f 34/167/55 35/168/55 36/169/55
f 28/148/17 127/170/17 29/171/17
f 27/160/56 29/162/56 25/158/56
f 33/166/57 34/167/57 31/164/57
f 32/154/20 124/172/20 33/173/20
f 26/159/58 31/164/58 27/160/58
f 35/174/22 122/175/22 36/146/22
f 25/176/23 125/177/23 26/152/23
f 28/161/59 34/167/59 36/169/59
f 25/178/25 127/179/25 128/180/25
f 84/12/51 122/181/51 123/182/51
f 74/183/51 125/184/51 128/185/51
f 18/186/9 130/187/9 129/188/9
f 16/189/10 19/190/10 24/191/10
f 20/192/12 131/193/12 23/194/12
f 15/195/11 134/196/11 21/197/11
f 13/198/60 15/199/60 14/200/60
f 16/201/61 18/202/61 17/203/61
f 19/204/62 21/205/62 20/206/62
f 22/207/63 24/208/63 23/209/63
f 16/201/64 22/207/64 18/202/64
f 17/210/43 129/188/43 135/211/43
f 23/209/65 19/204/65 20/206/65
f 14/200/66 17/203/66 13/198/66
f 21/197/46 132/212/46 20/213/46
f 22/214/48 131/215/48 130/187/48
f 21/205/67 14/200/67 15/199/67
f 13/216/49 133/217/49 15/195/49
f 17/218/51 136/219/51 13/220/51
f 76/221/10 130/222/10 131/223/10
f 87/224/10 133/225/10 136/226/10
f 6/227/51 138/228/51 137/229/51
f 4/230/11 7/231/11 12/232/11
f 11/233/10 140/234/10 139/235/10
f 9/236/12 141/237/12 142/238/12
f 1/239/68 3/240/68 2/241/68
f 4/242/69 6/243/69 5/244/69
f 7/245/70 9/246/70 8/247/70
f 10/248/71 12/249/71 11/250/71
f 4/242/72 10/248/72 6/243/72
f 5/251/31 137/252/31 143/253/31
f 11/250/73 7/245/73 8/247/73
f 2/241/74 5/244/74 1/239/74
f 8/254/34 142/255/34 140/234/34
f 10/256/75 139/235/75 138/257/75
f 9/246/76 2/241/76 3/240/76
f 3/258/37 144/259/37 141/260/37
f 1/261/25 143/253/25 144/259/25
f 76/4/11 144/262/11 143/263/11
f 94/22/11 138/264/11 139/265/11
f 64/25/9 97/50/9 98/26/9
f 69/28/10 71/266/10 99/29/10
f 68/31/11 102/52/11 101/32/11
f 66/34/12 70/267/12 67/35/12
f 65/49/17 103/268/17 97/50/17
f 61/37/18 65/42/18 66/41/18
f 67/43/19 70/46/19 71/48/19
f 69/51/20 100/269/20 102/52/20
f 63/38/21 67/43/21 68/45/21
f 72/27/22 98/26/22 99/53/22
f 62/33/23 101/32/23 104/55/23
f 72/47/24 70/46/24 66/41/24
f 65/57/25 61/270/25 104/58/25
f 103/62/12 104/271/12 85/272/12
f 85/272/12 88/273/12 103/62/12
f 88/273/12 90/60/12 103/62/12
f 98/274/12 97/61/12 90/60/12
f 90/60/12 96/275/12 98/274/12
f 96/275/12 95/276/12 98/274/12
f 95/276/12 91/277/12 100/65/12
f 91/277/12 93/63/12 100/65/12
f 93/63/12 86/278/12 102/64/12
f 86/278/12 85/272/12 101/279/12
f 102/64/12 86/278/12 101/279/12
f 85/272/12 104/271/12 101/279/12
f 99/280/12 98/274/12 95/276/12
f 100/65/12 99/280/12 95/276/12
f 106/66/77 60/281/77 52/67/77
f 59/69/10 107/282/10 108/70/10
f 56/72/12 110/283/12 109/73/12
f 54/75/9 58/284/9 55/76/9
f 52/90/31 53/100/31 111/91/31
f 49/78/32 53/83/32 54/82/32
f 55/84/33 58/87/33 59/89/33
f 57/71/34 108/70/34 110/93/34
f 51/79/35 55/84/35 56/86/35
f 59/95/78 60/281/78 106/66/78
f 49/97/37 50/285/37 109/98/37
f 60/88/38 58/87/38 54/82/38
f 53/100/25 49/97/25 112/99/25
f 110/103/9 79/7/9 74/2/9
f 74/2/9 73/1/9 112/102/9
f 73/1/9 87/15/9 112/102/9
f 87/15/9 86/14/9 105/286/9
f 86/14/9 93/21/9 105/286/9
f 105/286/79 93/21/79 106/287/79
f 93/21/9 92/20/9 107/288/9
f 93/21/80 107/288/80 106/287/80
f 109/289/9 110/103/9 74/2/9
f 112/102/9 109/289/9 74/2/9
f 87/15/9 105/286/9 111/101/9
f 108/104/9 107/288/9 92/20/9
f 92/20/9 80/8/9 108/104/9
f 80/8/9 79/7/9 108/104/9
f 48/105/9 40/129/9 113/106/9
f 45/108/12 47/290/12 115/109/12
f 38/111/11 44/131/11 118/112/11
f 42/114/25 46/291/25 43/115/25
f 40/129/43 41/292/43 119/130/43
f 37/117/44 41/122/44 42/121/44
f 43/123/45 46/126/45 47/128/45
f 44/131/46 45/293/46 116/132/46
f 39/118/47 43/123/47 44/125/47
f 47/133/48 48/105/48 114/107/48
f 37/135/49 38/111/49 117/113/49
f 48/127/50 46/126/50 42/121/50
f 41/137/51 37/294/51 120/138/51
f 119/142/25 120/295/25 91/296/25
f 91/296/25 95/297/25 119/142/25
f 95/297/25 94/140/25 119/142/25
f 114/298/81 113/141/81 83/299/81
f 113/141/82 94/140/82 83/299/82
f 83/299/83 82/300/83 114/298/83
f 82/300/25 81/301/25 116/145/25
f 81/301/25 80/143/25 116/145/25
f 80/143/25 92/302/25 118/144/25
f 92/302/25 91/296/25 117/303/25
f 118/144/25 92/302/25 117/303/25
f 91/296/25 120/295/25 117/303/25
f 115/304/25 114/298/25 82/300/25
f 116/145/25 115/304/25 82/300/25
f 36/146/9 122/175/9 121/147/9
f 35/149/10 33/305/10 124/150/10
f 26/152/11 125/177/11 126/153/11
f 27/155/51 31/306/51 34/156/51
f 28/148/17 121/147/17 127/170/17
f 27/160/56 30/163/56 29/162/56
f 33/166/57 35/168/57 34/167/57
f 32/154/20 126/153/20 124/172/20
f 26/159/58 32/165/58 31/164/58
f 35/174/22 123/307/22 122/175/22
f 25/176/23 128/308/23 125/177/23
f 28/161/59 30/163/59 34/167/59
f 25/178/25 29/309/25 127/179/25
f 123/182/51 124/310/51 81/311/51
f 81/311/51 82/10/51 123/182/51
f 82/10/51 84/12/51 123/182/51
f 121/312/51 122/181/51 84/12/51
f 84/12/51 78/313/51 121/312/51
f 78/313/51 77/314/51 121/312/51
f 77/314/51 75/315/51 128/185/51
f 75/315/51 74/183/51 128/185/51
f 74/183/51 79/316/51 125/184/51
f 79/316/51 81/311/51 126/317/51
f 125/184/51 79/316/51 126/317/51
f 81/311/51 124/310/51 126/317/51
f 127/318/51 121/312/51 77/314/51
f 128/185/51 127/318/51 77/314/51
f 18/186/9 22/214/9 130/187/9
f 16/189/10 14/319/10 19/190/10
f 20/192/12 132/320/12 131/193/12
f 15/195/11 133/217/11 134/196/11
f 16/201/64 24/208/64 22/207/64
f 17/210/43 18/186/43 129/188/43
f 23/209/65 24/208/65 19/204/65
f 14/200/66 16/201/66 17/203/66
f 21/197/46 134/196/46 132/212/46
f 22/214/48 23/321/48 131/215/48
f 21/205/67 19/204/67 14/200/67
f 13/216/49 136/322/49 133/217/49
f 17/218/51 135/323/51 136/219/51
f 131/223/10 132/324/10 75/325/10
f 75/325/10 77/326/10 131/223/10
f 77/326/10 76/221/10 131/223/10
f 129/327/10 130/222/10 76/221/10
f 76/221/10 89/328/10 129/327/10
f 89/328/10 88/329/10 129/327/10
f 88/329/10 85/330/10 136/226/10
f 85/330/10 87/224/10 136/226/10
f 87/224/10 73/331/10 133/225/10
f 73/331/10 75/325/10 134/332/10
f 133/225/10 73/331/10 134/332/10
f 75/325/10 132/324/10 134/332/10
f 135/333/10 129/327/10 88/329/10
f 136/226/10 135/333/10 88/329/10
f 6/227/51 10/334/51 138/228/51
f 4/230/11 2/335/11 7/231/11
f 11/233/10 8/254/10 140/234/10
f 9/236/12 3/336/12 141/237/12
f 4/242/72 12/249/72 10/248/72
f 5/251/31 6/337/31 137/252/31
f 11/250/73 12/249/73 7/245/73
f 2/241/74 4/242/74 5/244/74
f 8/254/34 9/338/34 142/255/34
f 10/256/75 11/233/75 139/235/75
f 9/246/76 7/245/76 2/241/76
f 3/258/37 1/261/37 144/259/37
f 1/261/25 5/251/25 143/253/25
f 138/264/11 96/24/11 137/339/11
f 96/24/11 90/18/11 137/339/11
f 90/18/11 89/17/11 143/263/11
f 89/17/11 76/4/11 143/263/11
f 76/4/11 78/6/11 141/340/11
f 78/6/11 84/341/11 142/342/11
f 84/341/84 83/343/84 140/344/84
f 84/341/11 140/344/11 142/342/11
f 143/263/11 137/339/11 90/18/11
f 78/6/11 142/342/11 141/340/11
f 76/4/11 141/340/11 144/262/11
f 140/344/85 83/343/85 94/22/85
f 94/22/11 96/24/11 138/264/11
f 139/265/11 140/344/11 94/22/11
