# Blender v2.92.0 OBJ File: 'Cube_Word_Raiders.blend'
# www.blender.org
mtllib Cube_Word_Raiders.mtl
o Cube_Cube.001
v 0.692775 -0.913403 -0.800000
v 0.692775 -0.900000 -0.692775
v 0.800000 -0.913403 -0.692775
v -0.692775 -0.900000 -0.692775
v -0.692775 -0.913403 -0.800000
v -0.800000 -0.913403 -0.692775
v 0.692775 -0.900000 0.692775
v 0.692775 -0.913403 0.800000
v 0.800000 -0.913403 0.692775
v -0.800000 -0.913403 0.692775
v -0.692775 -0.913403 0.800000
v -0.692775 -0.900000 0.692775
v -0.800000 0.692775 -0.913403
v -0.692775 0.692775 -0.900000
v -0.692775 0.800000 -0.913403
v -0.692775 -0.692775 -0.900000
v -0.800000 -0.692775 -0.913403
v -0.692775 -0.800000 -0.913403
v 0.692775 0.692775 -0.900000
v 0.800000 0.692775 -0.913403
v 0.692775 0.800000 -0.913403
v 0.692775 -0.800000 -0.913403
v 0.800000 -0.692775 -0.913403
v 0.692775 -0.692775 -0.900000
v 0.913403 0.692775 -0.800000
v 0.913403 0.800000 -0.692775
v 0.900000 0.692775 -0.692775
v 0.913403 -0.800000 -0.692775
v 0.913403 -0.692775 -0.800000
v 0.900000 -0.692775 -0.692775
v 0.900000 0.692775 0.692775
v 0.913403 0.800000 0.692775
v 0.913403 0.692775 0.800000
v 0.900000 -0.692775 0.692775
v 0.913403 -0.692775 0.800000
v 0.913403 -0.800000 0.692775
v -0.800000 0.692775 0.913403
v -0.692775 0.800000 0.913403
v -0.692775 0.692775 0.900000
v -0.692775 -0.800000 0.913403
v -0.800000 -0.692775 0.913403
v -0.692775 -0.692775 0.900000
v 0.692775 0.692775 0.900000
v 0.692775 0.800000 0.913403
v 0.800000 0.692775 0.913403
v 0.692775 -0.692775 0.900000
v 0.800000 -0.692775 0.913403
v 0.692775 -0.800000 0.913403
v 0.692775 0.913403 -0.800000
v 0.800000 0.913403 -0.692775
v 0.692775 0.900000 -0.692775
v -0.800000 0.913403 -0.692775
v -0.692775 0.913403 -0.800000
v -0.692775 0.900000 -0.692775
v 0.692775 0.900000 0.692775
v 0.800000 0.913403 0.692775
v 0.692775 0.913403 0.800000
v -0.692775 0.900000 0.692775
v -0.692775 0.913403 0.800000
v -0.800000 0.913403 0.692775
v -0.913403 0.692775 -0.800000
v -0.913403 0.800000 -0.692775
v -0.900000 0.692775 -0.692775
v -0.913403 -0.800000 -0.692775
v -0.913403 -0.692775 -0.800000
v -0.900000 -0.692775 -0.692775
v -0.900000 0.692775 0.692775
v -0.913403 0.800000 0.692775
v -0.913403 0.692775 0.800000
v -0.900000 -0.692775 0.692775
v -0.913403 -0.692775 0.800000
v -0.913403 -0.800000 0.692775
v 0.830801 1.000000 -1.000000
v 1.000000 1.000000 -0.830801
v 1.000000 0.830801 -1.000000
v 0.830801 -1.000000 -1.000000
v 1.000000 -0.830801 -1.000000
v 1.000000 -1.000000 -0.830801
v 1.000000 1.000000 0.830801
v 0.830801 1.000000 1.000000
v 1.000000 0.830801 1.000000
v 1.000000 -0.830801 1.000000
v 0.832743 -1.005834 1.002486
v 1.000000 -1.000000 0.830801
v -1.000000 0.830801 -1.000000
v -1.000000 1.000000 -0.830801
v -0.830801 1.000000 -1.000000
v -1.000000 -0.830801 -1.000000
v -0.830801 -1.000000 -1.000000
v -1.000000 -1.000000 -0.830801
v -1.000000 0.830801 1.000000
v -0.830801 1.000000 1.000000
v -1.000000 1.000000 0.830801
v -0.830801 -1.000000 1.000000
v -1.000000 -0.830801 1.000000
v -1.000000 -1.000000 0.830801
v -1.000000 -0.800000 -0.692775
v -1.000000 -0.800000 0.692775
v -1.000000 -0.692775 0.800000
v -1.000000 0.692775 0.800000
v -1.000000 0.800000 -0.692775
v -1.000000 0.800000 0.692775
v -1.000000 -0.692775 -0.800000
v -1.000000 0.692775 -0.800000
v -0.800000 1.000000 -0.692775
v -0.797305 0.999957 0.690508
v -0.692775 1.000000 0.800000
v 0.692775 1.000000 0.800000
v 0.800000 1.000000 -0.692775
v 0.800000 1.000000 0.692775
v -0.692775 1.000000 -0.800000
v 0.692775 1.000000 -0.800000
v -0.692775 -0.800000 1.000000
v 0.692775 -0.800000 1.000000
v 0.800000 -0.692775 1.000000
v 0.800000 0.692775 1.000000
v -0.692775 0.800000 1.000000
v 0.692775 0.800000 1.000000
v -0.800000 -0.692775 1.000000
v -0.800000 0.692775 1.000000
v 1.000000 -0.800000 -0.692775
v 1.000000 -0.800000 0.692775
v 1.000000 -0.692775 0.800000
v 1.000000 0.692775 0.800000
v 1.000000 0.800000 -0.692775
v 1.000000 0.800000 0.692775
v 1.000000 -0.692775 -0.800000
v 1.000000 0.692775 -0.800000
v -0.692775 -0.800000 -1.000000
v 0.692775 -0.800000 -1.000000
v 0.800000 -0.692775 -1.000000
v 0.800000 0.692775 -1.000000
v -0.692775 0.800000 -1.000000
v 0.692775 0.800000 -1.000000
v -0.800000 -0.692775 -1.000000
v -0.800000 0.692775 -1.000000
v -0.800000 -1.000000 -0.692775
v -0.800000 -1.000000 0.692775
v -0.692775 -1.000000 0.800000
v 0.692775 -1.000000 0.800000
v 0.800000 -1.000000 -0.692775
v 0.800000 -1.000000 0.692775
v -0.692775 -1.000000 -0.800000
v 0.692775 -1.000000 -0.800000
vt 0.077894 0.151043
vt 0.084484 0.157633
vt 0.077894 0.157633
vt 0.077894 0.001846
vt 0.077894 0.008442
vt 0.071304 0.001852
vt 0.000002 0.001846
vt 0.012125 0.001859
vt 0.000001 0.013983
vt 0.015200 0.162734
vt 0.006205 0.153991
vt 0.015200 0.145588
vt 0.077894 0.073150
vt 0.084484 0.079739
vt 0.077894 0.079739
vt 0.077894 0.008435
vt 0.077894 0.001846
vt 0.084484 0.001846
vt 0.235087 0.002964
vt 0.252197 0.001846
vt 0.244433 0.014503
vt 0.131187 0.145171
vt 0.143311 0.133047
vt 0.143312 0.145158
vt 0.224848 0.204369
vt 0.228221 0.258332
vt 0.224848 0.258332
vt 0.218103 0.258332
vt 0.221476 0.204369
vt 0.221476 0.258332
vt 0.248457 0.258332
vt 0.245084 0.204369
vt 0.248457 0.204369
vt 0.001601 1.001220
vt 0.188267 0.814554
vt 0.188267 1.001220
vt 0.213927 0.142054
vt 0.213927 0.137878
vt 0.218103 0.137878
vt 0.155788 0.137878
vt 0.159964 0.137878
vt 0.159964 0.142054
vt 0.213927 0.083915
vt 0.213927 0.079739
vt 0.218103 0.083915
vt 0.159964 0.083915
vt 0.155788 0.083915
vt 0.159964 0.079739
vt 0.072433 0.161816
vt 0.069060 0.157640
vt 0.072433 0.157640
vt 0.221476 0.262508
vt 0.218103 0.262508
vt 0.228221 0.262508
vt 0.224848 0.262508
vt 0.072433 0.219955
vt 0.069060 0.215779
vt 0.072433 0.215779
vt 0.069060 0.161816
vt 0.040579 0.124432
vt 0.045955 0.132221
vt 0.041779 0.136397
vt 0.234966 0.025033
vt 0.229043 0.017720
vt 0.243798 0.055720
vt 0.240431 0.001846
vt 0.243804 0.001846
vt 0.251830 0.258332
vt 0.248457 0.204369
vt 0.251830 0.204369
vt 0.240427 0.059985
vt 0.237054 0.006022
vt 0.240427 0.006022
vt 0.000678 0.813204
vt 0.188207 1.000732
vt 0.000678 1.000732
vt 0.218103 0.137878
vt 0.222279 0.137878
vt 0.222279 0.142054
vt 0.222279 0.079739
vt 0.222279 0.083915
vt 0.218103 0.083915
vt 0.276242 0.137878
vt 0.280418 0.137878
vt 0.276242 0.142054
vt 0.276242 0.083915
vt 0.276242 0.079739
vt 0.280418 0.083915
vt 0.238339 0.204369
vt 0.234966 0.208545
vt 0.234966 0.204369
vt 0.240427 0.064161
vt 0.237054 0.059985
vt 0.240431 0.059985
vt 0.243804 0.059985
vt 0.240427 0.001846
vt 0.237054 0.001846
vt 0.238339 0.208545
vt 0.234966 0.262508
vt 0.077894 0.086329
vt 0.085684 0.091705
vt 0.085684 0.145668
vt 0.149198 0.157633
vt 0.143823 0.149844
vt 0.147999 0.145668
vt 0.274213 0.072049
vt 0.280418 0.001846
vt 0.280418 0.072049
vt 0.274213 0.153118
vt 0.280418 0.082915
vt 0.280418 0.153118
vt 0.260672 0.001846
vt 0.257299 0.055808
vt 0.257299 0.001846
vt -0.000976 1.000903
vt 0.187781 0.812146
vt 0.187781 1.000903
vt 0.213927 0.204369
vt 0.213927 0.200193
vt 0.218103 0.200193
vt 0.155788 0.200193
vt 0.159964 0.200193
vt 0.159964 0.204369
vt 0.213927 0.146230
vt 0.213927 0.142054
vt 0.218103 0.146230
vt 0.159964 0.146230
vt 0.155788 0.146230
vt 0.159964 0.142054
vt 0.116613 0.148348
vt 0.110408 0.156031
vt 0.110408 0.148348
vt 0.065688 0.219955
vt 0.069060 0.215779
vt 0.069060 0.219955
vt 0.274213 0.082915
vt 0.116613 0.255314
vt 0.110408 0.262997
vt 0.110408 0.255314
vt 0.116613 0.156031
vt 0.121297 0.130840
vt 0.128980 0.123156
vt 0.022015 0.016190
vt 0.014332 0.023873
vt 0.224848 0.258332
vt 0.221476 0.204369
vt 0.224848 0.204369
vt 0.257299 0.001846
vt 0.253926 0.055808
vt 0.253926 0.001846
vt 0.241712 0.204369
vt 0.245084 0.258332
vt 0.241712 0.258332
vt 0.187480 0.813377
vt -0.000160 1.001017
vt -0.000160 0.813377
vt 0.276242 0.142054
vt 0.280418 0.146230
vt 0.276241 0.146230
vt 0.218103 0.146230
vt 0.222279 0.142054
vt 0.222279 0.146230
vt 0.276241 0.200193
vt 0.280418 0.200193
vt 0.276242 0.204369
vt 0.222279 0.200193
vt 0.222279 0.204369
vt 0.218103 0.200193
vt 0.062315 0.157640
vt 0.065688 0.161816
vt 0.062315 0.161816
vt 0.257299 0.059985
vt 0.257299 0.055808
vt 0.224848 0.262508
vt 0.221476 0.258332
vt 0.062315 0.215779
vt 0.065688 0.219955
vt 0.062315 0.219955
vt 0.065688 0.215779
vt 0.006590 0.001852
vt 0.011965 0.009642
vt 0.007789 0.013818
vt 0.071304 0.079746
vt 0.065928 0.071957
vt 0.070104 0.067781
vt 0.228221 0.258332
vt 0.231594 0.204369
vt 0.231594 0.258332
vt 0.000301 0.812993
vt 0.187716 1.000409
vt 0.000301 1.000409
vt 0.075806 0.215779
vt 0.072433 0.161816
vt 0.075806 0.161816
vt 0.251830 0.204369
vt 0.255203 0.258332
vt 0.251830 0.258332
vt 0.058139 0.157640
vt 0.062315 0.161816
vt 0.058139 0.161816
vt 0.004176 0.161816
vt 0.000000 0.161816
vt 0.004176 0.157640
vt 0.058139 0.215779
vt 0.062315 0.215779
vt 0.058139 0.219955
vt 0.000000 0.215779
vt 0.004176 0.215779
vt 0.004176 0.219955
vt 0.228221 0.262508
vt 0.231594 0.262508
vt 0.075806 0.219955
vt 0.072433 0.215779
vt 0.075806 0.157640
vt 0.072433 0.157640
vt 0.250553 0.006026
vt 0.247181 0.001846
vt 0.250553 0.001846
vt 0.250553 0.059989
vt 0.247181 0.006026
vt 0.000000 0.151050
vt 0.007789 0.145675
vt 0.011965 0.149851
vt 0.070104 0.091712
vt 0.065928 0.087536
vt 0.247181 0.001846
vt 0.243804 0.055808
vt 0.243808 0.001846
vt 0.000591 1.000196
vt 0.188130 0.812657
vt 0.188130 1.000196
vt 0.255203 0.258332
vt 0.258575 0.204369
vt 0.258575 0.258332
vt 0.233682 0.059985
vt 0.237054 0.006022
vt 0.237054 0.059985
vt 0.155788 0.208545
vt 0.159964 0.204369
vt 0.159964 0.208545
vt 0.159964 0.262508
vt 0.159964 0.266684
vt 0.155788 0.262508
vt 0.213927 0.208545
vt 0.213927 0.204369
vt 0.218103 0.208545
vt 0.213927 0.266684
vt 0.213927 0.262508
vt 0.218103 0.262508
vt 0.231594 0.208545
vt 0.234966 0.204369
vt 0.234966 0.208545
vt 0.233682 0.064161
vt 0.237054 0.064161
vt 0.247177 0.055809
vt 0.243808 0.059985
vt 0.233682 0.006022
vt 0.237054 0.001846
vt 0.231594 0.262508
vt 0.234966 0.262508
vt 0.155788 0.008435
vt 0.163577 0.013811
vt 0.163577 0.067774
vt 0.274213 0.121048
vt 0.252197 0.118875
vt 0.259868 0.111180
vt 0.228221 0.204369
vt 0.218103 0.204369
vt 0.245084 0.258332
vt 0.001601 0.814554
vt 0.069060 0.219955
vt 0.041779 0.190360
vt 0.033989 0.195736
vt 0.033989 0.131022
vt 0.154069 0.030319
vt 0.160543 0.129391
vt 0.151076 0.139921
vt 0.143312 0.021111
vt 0.151076 0.008454
vt 0.252197 0.133312
vt 0.244433 0.145970
vt 0.241440 0.124104
vt 0.236520 0.132125
vt 0.158989 0.022298
vt 0.240427 0.055808
vt 0.248457 0.258332
vt 0.188207 0.813204
vt 0.237054 0.064161
vt 0.238339 0.262508
vt 0.089860 0.087529
vt 0.149198 0.079739
vt 0.143734 0.087634
vt 0.155788 0.086329
vt 0.147999 0.091705
vt 0.089860 0.149844
vt 0.155788 0.151043
vt 0.274213 0.001846
vt 0.260672 0.055808
vt -0.000976 0.812146
vt 0.065688 0.215779
vt 0.116613 0.262997
vt 0.128981 0.023874
vt 0.143312 0.013984
vt 0.022014 0.130839
vt 0.011985 0.145588
vt 0.000000 0.133046
vt 0.131188 0.001860
vt 0.121298 0.016191
vt 0.014331 0.123155
vt 0.245084 0.204369
vt 0.187480 1.001017
vt 0.065688 0.157640
vt 0.253926 0.059985
vt 0.221476 0.262508
vt 0.007789 0.067781
vt 0.000000 0.073156
vt 0.000000 0.008442
vt 0.065928 0.009642
vt 0.077894 0.073156
vt 0.006590 0.079746
vt 0.011965 0.071957
vt 0.070104 0.013818
vt 0.228221 0.204369
vt 0.187716 0.812993
vt 0.255203 0.204369
vt 0.072433 0.219955
vt 0.247181 0.059989
vt 0.065928 0.149851
vt 0.071304 0.157640
vt 0.006590 0.157640
vt 0.007789 0.091712
vt 0.000000 0.086336
vt 0.006590 0.079746
vt 0.071304 0.079746
vt 0.077894 0.151050
vt 0.070104 0.145675
vt 0.011965 0.087536
vt 0.000591 0.812657
vt 0.255203 0.204369
vt 0.231594 0.204369
vt 0.247181 0.059985
vt 0.233682 0.001846
vt 0.221716 0.071950
vt 0.227092 0.079739
vt 0.167753 0.071950
vt 0.162378 0.079739
vt 0.155788 0.073150
vt 0.162378 0.001846
vt 0.167753 0.009635
vt 0.227092 0.001846
vt 0.221716 0.009635
vt 0.233682 0.008435
vt 0.225892 0.013811
vt 0.259715 0.011898
vt 0.274213 0.001846
vt 0.262108 0.133191
vn 0.5774 0.5774 -0.5774
vn 0.5774 -0.5774 -0.5774
vn 0.5774 0.5774 0.5774
vn 0.6003 -0.5656 0.5656
vn -0.5774 0.5774 -0.5774
vn -0.5774 -0.5774 -0.5774
vn -0.5774 0.5774 0.5774
vn -0.5774 -0.5774 0.5774
vn 0.0000 1.0000 0.0000
vn 0.0000 0.0000 -1.0000
vn 0.0000 -1.0000 0.0000
vn -1.0000 0.0000 0.0000
vn -0.9847 -0.1231 0.1231
vn -0.9847 0.1231 0.1231
vn -0.9847 -0.1231 -0.1231
vn -0.9847 0.1231 -0.1231
vn 0.0000 0.7071 0.7071
vn -0.9923 0.0000 0.1240
vn -0.9923 0.0000 -0.1240
vn 0.0000 -0.7071 -0.7071
vn -0.9923 -0.1240 0.0000
vn 0.0000 0.7071 -0.7071
vn 0.0000 -0.7071 0.7071
vn -0.9923 0.1240 0.0000
vn 0.0000 0.0000 1.0000
vn 1.0000 0.0000 -0.0019
vn -0.1231 0.9847 0.1231
vn 0.1231 0.9847 0.1231
vn -0.1231 0.9847 -0.1231
vn 0.1231 0.9847 -0.1231
vn 0.7071 0.0000 0.7071
vn 0.0000 0.9923 0.1240
vn 0.0000 0.9923 -0.1240
vn -0.7071 0.0000 -0.7071
vn -0.1240 0.9923 0.0000
vn 0.7233 0.0000 -0.6905
vn -0.7071 0.0000 0.7071
vn 0.1240 0.9923 0.0000
vn 0.1231 -0.1231 0.9847
vn 0.1231 0.1231 0.9847
vn -0.1231 -0.1231 0.9847
vn -0.1231 0.1231 0.9847
vn 0.7071 0.7071 0.0000
vn 0.1240 0.0000 0.9923
vn -0.1240 0.0000 0.9923
vn -0.7071 -0.7071 0.0000
vn 0.0000 -0.1240 0.9923
vn -0.7071 0.7071 0.0000
vn 0.7071 -0.7071 0.0000
vn 0.0000 0.1240 0.9923
vn 1.0000 0.0000 0.0000
vn 0.9847 -0.1231 0.1231
vn 0.9847 0.1231 0.1231
vn 0.9847 -0.1231 -0.1231
vn 0.9847 0.1231 -0.1231
vn 0.9923 0.0000 0.1240
vn 0.9923 0.0000 -0.1240
vn 0.9923 -0.1240 0.0000
vn 0.9923 0.1240 0.0000
vn 0.1231 -0.1231 -0.9847
vn 0.1231 0.1231 -0.9847
vn -0.1231 -0.1231 -0.9847
vn -0.1231 0.1231 -0.9847
vn 0.0000 0.1240 -0.9923
vn -0.1240 0.0000 -0.9923
vn 0.1240 0.0000 -0.9923
vn 0.0000 -0.1240 -0.9923
vn -0.1231 -0.9847 0.1231
vn 0.1231 -0.9847 0.1231
vn -0.1231 -0.9847 -0.1231
vn 0.1231 -0.9847 -0.1231
vn 0.1240 -0.9923 0.0000
vn 0.0000 -0.9923 -0.1240
vn 0.0000 -0.9923 0.1240
vn 0.7071 0.0000 -0.7071
vn -0.1240 -0.9923 0.0000
vn 0.9995 -0.0311 0.0000
vn 0.7065 -0.0405 -0.7065
vn 0.0002 1.0000 0.0000
vn -0.0000 1.0000 -0.0004
vn 0.0000 0.0121 0.9999
vn -0.0015 0.0010 1.0000
vn 0.0013 0.0130 0.9999
vn 0.0031 -0.9995 -0.0309
vn -0.0035 -0.9996 -0.0264
g Cube_Cube.001_Material
usemtl Material
s off
f 73/1/1 74/2/1 75/3/1
f 76/4/2 77/5/2 78/6/2
f 79/7/3 80/8/3 81/9/3
f 82/10/4 83/11/4 84/12/4
f 85/13/5 86/14/5 87/15/5
f 88/16/6 89/17/6 90/18/6
f 91/19/7 92/20/7 93/21/7
f 94/22/8 95/23/8 96/24/8
f 64/25/9 98/26/9 72/27/9
f 69/28/10 99/29/10 100/30/10
f 68/31/11 101/32/11 62/33/11
f 66/34/12 67/35/12 63/36/12
f 61/37/13 63/38/13 62/39/13
f 64/40/14 66/41/14 65/42/14
f 67/43/15 69/44/15 68/45/15
f 70/46/16 72/47/16 71/48/16
f 65/49/17 97/50/17 64/51/17
f 61/37/18 66/41/18 63/38/18
f 67/43/19 71/48/19 69/44/19
f 69/28/20 102/52/20 68/53/20
f 63/38/21 68/45/21 62/39/21
f 72/27/22 99/54/22 71/55/22
f 62/56/23 104/57/23 61/58/23
f 72/47/24 66/41/24 64/40/24
f 65/49/25 104/57/25 103/59/25
f 90/60/12 97/61/12 103/62/12
f 93/21/12 102/63/12 100/64/12
f 106/65/26 52/66/26 105/67/26
f 59/68/10 108/69/10 57/70/10
f 56/71/12 109/72/12 50/73/12
f 54/74/9 55/75/9 51/76/9
f 49/77/27 51/78/27 50/79/27
f 52/80/28 54/81/28 53/82/28
f 55/83/29 57/84/29 56/85/29
f 58/86/30 60/87/30 59/88/30
f 52/89/31 111/90/31 105/91/31
f 49/77/32 54/81/32 51/78/32
f 55/83/33 59/88/33 57/84/33
f 57/92/34 110/93/34 56/71/34
f 51/78/35 56/85/35 50/79/35
f 59/94/36 106/65/36 107/95/36
f 49/96/37 109/72/37 112/97/37
f 60/87/38 54/81/38 52/80/38
f 53/98/25 112/99/25 111/90/25
f 87/100/9 111/101/9 112/102/9
f 79/103/9 110/104/9 108/105/9
f 48/106/9 113/107/9 114/108/9
f 45/109/12 115/110/12 116/111/12
f 38/112/11 118/113/11 117/114/11
f 42/115/25 43/116/25 39/117/25
f 37/118/39 39/119/39 38/120/39
f 40/121/40 42/122/40 41/123/40
f 43/124/41 45/125/41 44/126/41
f 46/127/42 48/128/42 47/129/42
f 40/130/43 119/131/43 113/132/43
f 37/118/44 42/122/44 39/119/44
f 43/124/45 47/129/45 45/125/45
f 44/133/46 116/134/46 118/135/46
f 39/119/47 44/126/47 38/120/47
f 47/136/48 114/108/48 115/110/48
f 37/137/49 117/138/49 120/139/49
f 48/128/50 42/122/50 40/121/50
f 41/140/51 120/139/51 119/131/51
f 94/22/25 113/141/25 119/142/25
f 80/8/25 118/143/25 116/144/25
f 36/145/9 121/146/9 28/147/9
f 35/148/10 124/149/10 123/150/10
f 26/151/11 126/152/11 32/153/11
f 27/154/51 34/155/51 30/156/51
f 25/157/52 26/158/52 27/159/52
f 28/160/53 29/161/53 30/162/53
f 31/163/54 32/164/54 33/165/54
f 34/166/55 35/167/55 36/168/55
f 28/169/17 127/170/17 29/171/17
f 27/159/56 29/161/56 25/157/56
f 33/165/57 34/166/57 31/163/57
f 32/172/20 124/149/20 33/173/20
f 26/158/58 31/163/58 27/159/58
f 35/174/22 122/175/22 36/145/22
f 25/176/23 125/177/23 26/178/23
f 28/160/59 34/166/59 36/168/59
f 25/176/25 127/170/25 128/179/25
f 84/180/51 122/181/51 123/182/51
f 74/183/51 125/184/51 128/185/51
f 18/186/9 130/187/9 129/188/9
f 16/189/10 19/190/10 24/191/10
f 20/192/12 131/193/12 23/194/12
f 15/195/11 134/196/11 21/197/11
f 13/198/60 15/199/60 14/200/60
f 16/201/61 18/202/61 17/203/61
f 19/204/62 21/205/62 20/206/62
f 22/207/63 24/208/63 23/209/63
f 16/201/64 22/207/64 18/202/64
f 17/210/43 129/188/43 135/211/43
f 23/209/65 19/204/65 20/206/65
f 14/200/66 17/203/66 13/198/66
f 21/212/46 132/213/46 20/192/46
f 22/214/48 131/193/48 130/215/48
f 21/205/67 14/200/67 15/199/67
f 13/216/49 133/217/49 15/218/49
f 17/219/51 136/220/51 13/216/51
f 76/221/10 130/222/10 131/223/10
f 87/100/10 133/224/10 136/225/10
f 6/226/51 138/227/51 137/228/51
f 4/229/11 7/230/11 12/231/11
f 11/232/10 140/233/10 139/234/10
f 9/235/12 141/236/12 142/237/12
f 1/238/68 3/239/68 2/240/68
f 4/241/69 6/242/69 5/243/69
f 7/244/70 9/245/70 8/246/70
f 10/247/71 12/248/71 11/249/71
f 4/241/72 10/247/72 6/242/72
f 5/250/31 137/251/31 143/252/31
f 11/249/73 7/244/73 8/246/73
f 2/240/74 5/243/74 1/238/74
f 8/253/34 142/237/34 140/254/34
f 10/255/75 139/256/75 138/227/75
f 9/245/76 2/240/76 3/239/76
f 3/257/37 144/258/37 141/236/37
f 1/259/25 143/252/25 144/260/25
f 76/261/11 144/262/11 143/263/11
f 94/264/11 138/265/11 139/266/11
f 64/25/9 97/267/9 98/26/9
f 69/28/10 71/268/10 99/29/10
f 68/31/11 102/269/11 101/32/11
f 66/34/12 70/270/12 67/35/12
f 65/49/17 103/59/17 97/50/17
f 61/37/18 65/42/18 66/41/18
f 67/43/19 70/46/19 71/48/19
f 69/28/20 100/30/20 102/52/20
f 63/38/21 67/43/21 68/45/21
f 72/27/22 98/26/22 99/54/22
f 62/56/23 101/271/23 104/57/23
f 72/47/24 70/46/24 66/41/24
f 65/49/25 61/58/25 104/57/25
f 103/62/12 104/272/12 85/273/12
f 85/273/12 88/274/12 103/62/12
f 88/274/12 90/60/12 103/62/12
f 98/275/12 97/276/12 90/277/12
f 90/277/12 96/278/12 98/275/12
f 96/278/12 95/279/12 98/275/12
f 95/279/12 91/19/12 100/64/12
f 91/19/12 93/21/12 100/64/12
f 93/21/12 86/280/12 102/63/12
f 86/280/12 85/281/12 101/282/12
f 102/63/12 86/280/12 101/282/12
f 85/281/12 104/283/12 101/282/12
f 99/284/12 98/275/12 95/279/12
f 100/64/12 99/284/12 95/279/12
f 106/65/77 60/285/77 52/66/77
f 59/68/10 107/286/10 108/69/10
f 56/71/12 110/93/12 109/72/12
f 54/74/9 58/287/9 55/75/9
f 52/89/31 53/98/31 111/90/31
f 49/77/32 53/82/32 54/81/32
f 55/83/33 58/86/33 59/88/33
f 57/92/34 108/288/34 110/93/34
f 51/78/35 55/83/35 56/85/35
f 59/94/78 60/285/78 106/65/78
f 49/96/37 50/73/37 109/72/37
f 60/87/38 58/86/38 54/81/38
f 53/98/25 49/289/25 112/99/25
f 110/104/9 79/103/9 74/2/9
f 74/2/9 73/1/9 112/102/9
f 73/1/9 87/100/9 112/102/9
f 87/100/9 86/14/9 105/290/9
f 86/14/9 93/291/9 105/290/9
f 105/290/79 93/291/79 106/292/79
f 93/291/9 92/293/9 107/294/9
f 93/291/80 107/294/80 106/292/80
f 109/295/9 110/104/9 74/2/9
f 112/102/9 109/295/9 74/2/9
f 87/100/9 105/290/9 111/101/9
f 108/105/9 107/294/9 92/293/9
f 92/293/9 80/296/9 108/105/9
f 80/296/9 79/103/9 108/105/9
f 48/106/9 40/297/9 113/107/9
f 45/109/12 47/136/12 115/110/12
f 38/112/11 44/298/11 118/113/11
f 42/115/25 46/299/25 43/116/25
f 40/130/43 41/140/43 119/131/43
f 37/118/44 41/123/44 42/122/44
f 43/124/45 46/127/45 47/129/45
f 44/133/46 45/300/46 116/134/46
f 39/119/47 43/124/47 44/126/47
f 47/136/48 48/106/48 114/108/48
f 37/137/49 38/301/49 117/138/49
f 48/128/50 46/127/50 42/122/50
f 41/140/51 37/137/51 120/139/51
f 119/142/25 120/302/25 91/303/25
f 91/303/25 95/23/25 119/142/25
f 95/23/25 94/22/25 119/142/25
f 114/304/81 113/141/81 83/305/81
f 113/141/82 94/22/82 83/305/82
f 83/305/83 82/306/83 114/304/83
f 82/306/25 81/9/25 116/144/25
f 81/9/25 80/8/25 116/144/25
f 80/8/25 92/307/25 118/143/25
f 92/307/25 91/303/25 117/308/25
f 118/143/25 92/307/25 117/308/25
f 91/303/25 120/302/25 117/308/25
f 115/309/25 114/304/25 82/306/25
f 116/144/25 115/309/25 82/306/25
f 36/145/9 122/175/9 121/146/9
f 35/148/10 33/173/10 124/149/10
f 26/151/11 125/310/11 126/152/11
f 27/154/51 31/311/51 34/155/51
f 28/169/17 121/312/17 127/170/17
f 27/159/56 30/162/56 29/161/56
f 33/165/57 35/167/57 34/166/57
f 32/172/20 126/313/20 124/149/20
f 26/158/58 32/164/58 31/163/58
f 35/174/22 123/314/22 122/175/22
f 25/176/23 128/179/23 125/177/23
f 28/160/59 30/162/59 34/166/59
f 25/176/25 29/171/25 127/170/25
f 123/182/51 124/315/51 81/316/51
f 81/316/51 82/317/51 123/182/51
f 82/317/51 84/180/51 123/182/51
f 121/318/51 122/181/51 84/180/51
f 84/180/51 78/6/51 121/318/51
f 78/6/51 77/5/51 121/318/51
f 77/5/51 75/319/51 128/185/51
f 75/319/51 74/183/51 128/185/51
f 74/183/51 79/320/51 125/184/51
f 79/320/51 81/316/51 126/321/51
f 125/184/51 79/320/51 126/321/51
f 81/316/51 124/315/51 126/321/51
f 127/322/51 121/318/51 77/5/51
f 128/185/51 127/322/51 77/5/51
f 18/186/9 22/323/9 130/187/9
f 16/189/10 14/324/10 19/190/10
f 20/192/12 132/213/12 131/193/12
f 15/195/11 133/325/11 134/196/11
f 16/201/64 24/208/64 22/207/64
f 17/210/43 18/186/43 129/188/43
f 23/209/65 24/208/65 19/204/65
f 14/200/66 16/201/66 17/203/66
f 21/212/46 134/326/46 132/213/46
f 22/214/48 23/194/48 131/193/48
f 21/205/67 19/204/67 14/200/67
f 13/216/49 136/220/49 133/217/49
f 17/219/51 135/327/51 136/220/51
f 131/223/10 132/328/10 75/329/10
f 75/329/10 77/330/10 131/223/10
f 77/330/10 76/221/10 131/223/10
f 129/331/10 130/222/10 76/221/10
f 76/221/10 89/332/10 129/331/10
f 89/332/10 88/333/10 129/331/10
f 88/333/10 85/334/10 136/225/10
f 85/334/10 87/100/10 136/225/10
f 87/100/10 73/335/10 133/224/10
f 73/335/10 75/329/10 134/336/10
f 133/224/10 73/335/10 134/336/10
f 75/329/10 132/328/10 134/336/10
f 135/337/10 129/331/10 88/333/10
f 136/225/10 135/337/10 88/333/10
f 6/226/51 10/255/51 138/227/51
f 4/229/11 2/338/11 7/230/11
f 11/232/10 8/339/10 140/233/10
f 9/235/12 3/257/12 141/236/12
f 4/241/72 12/248/72 10/247/72
f 5/250/31 6/340/31 137/251/31
f 11/249/73 12/248/73 7/244/73
f 2/240/74 4/241/74 5/243/74
f 8/253/34 9/235/34 142/237/34
f 10/255/75 11/341/75 139/256/75
f 9/245/76 7/244/76 2/240/76
f 3/257/37 1/342/37 144/258/37
f 1/259/25 5/250/25 143/252/25
f 138/343/11 96/344/11 137/345/11
f 96/344/11 90/346/11 137/345/11
f 90/346/11 89/347/11 143/263/11
f 89/347/11 76/261/11 143/263/11
f 76/261/11 78/348/11 141/349/11
f 78/348/11 84/350/11 142/351/11
f 84/350/84 83/352/84 140/353/84
f 84/350/11 140/353/11 142/351/11
f 143/263/11 137/345/11 90/346/11
f 78/348/11 142/351/11 141/349/11
f 76/261/11 141/349/11 144/262/11
f 140/354/85 83/355/85 94/264/85
f 94/264/11 96/356/11 138/265/11
f 139/266/11 140/354/11 94/264/11
