# Blender v2.92.0 OBJ File: 'Diamond_Word_Raiders.blend'
# www.blender.org
mtllib Diamond_Word_Raiders.mtl
o Gem
v 0.000000 -0.093953 0.000000
v 0.000000 5.656048 0.000000
v 0.000000 1.906048 -2.164784
v 1.530734 3.906048 -3.695518
v 0.000000 4.781047 -3.463655
v 0.918440 5.656048 -2.217311
v 1.530734 1.906048 -1.530734
v 3.695518 3.906048 -1.530734
v 2.449174 4.781047 -2.449174
v 2.217311 5.656048 -0.918440
v 2.164784 1.906048 0.000000
v 3.695518 3.906048 1.530734
v 3.463655 4.781047 0.000000
v 2.217311 5.656048 0.918440
v 1.530734 1.906048 1.530734
v 1.530734 3.906048 3.695518
v 2.449174 4.781047 2.449174
v 0.918440 5.656048 2.217311
v 0.000000 1.906048 2.164784
v -1.530734 3.906048 3.695518
v 0.000000 4.781047 3.463655
v -0.918440 5.656048 2.217311
v -1.530734 1.906048 1.530734
v -3.695518 3.906048 1.530734
v -2.449174 4.781047 2.449174
v -2.217311 5.656048 0.918440
v -2.164784 1.906048 0.000000
v -3.695518 3.906048 -1.530734
v -3.463655 4.781047 0.000000
v -2.217311 5.656048 -0.918440
v -1.530734 1.906048 -1.530734
v -1.530734 3.906048 -3.695518
v -2.449174 4.781047 -2.449174
v -0.918440 5.656048 -2.217311
vt 0.370829 0.095684
vt 0.359922 0.111509
vt 0.338369 0.084982
vt 0.365096 0.063555
vt 0.327856 0.167916
vt 0.331603 0.142266
vt 0.340172 0.155896
vt 0.354735 0.157055
vt 0.352487 0.172446
vt 0.386649 0.090082
vt 0.392382 0.065856
vt 0.331603 0.203232
vt 0.340172 0.184466
vt 0.354735 0.193635
vt 0.421497 0.123995
vt 0.428164 0.136695
vt 0.394134 0.136695
vt 0.392382 0.106185
vt 0.340649 0.227525
vt 0.346167 0.212400
vt 0.423111 0.136695
vt 0.441481 0.145975
vt 0.425933 0.154129
vt 0.426412 0.106185
vt 0.410913 0.075890
vt 0.392382 0.173815
vt 0.403116 0.141005
vt 0.405937 0.158439
vt 0.419493 0.173815
vt 0.440028 0.093699
vt 0.438873 0.063555
vt 0.403116 0.206626
vt 0.405937 0.189191
vt 0.425933 0.193501
vt 0.454371 0.093851
vt 0.459882 0.076406
vt 0.445228 0.160988
vt 0.454273 0.136695
vt 0.459791 0.151819
vt 0.423111 0.210936
vt 0.441481 0.201656
vt 0.360316 0.128287
vt 0.371782 0.136190
vt 0.339717 0.142266
vt 0.327856 0.117585
vt 0.441481 0.196303
vt 0.453796 0.179753
vt 0.468359 0.170585
vt 0.466111 0.191774
vt 0.445228 0.221954
vt 0.453796 0.208324
vt 0.468359 0.207164
vt 0.498522 0.084423
vt 0.479202 0.090221
vt 0.487205 0.067265
vt 0.498522 0.104976
vt 0.487205 0.116886
vt 0.471200 0.113176
vt 0.459882 0.096019
vt 0.459882 0.075465
vt 0.471200 0.063555
vt 0.392382 0.122211
vt 0.346167 0.143425
vt 0.455527 0.123995
vn 0.2706 -0.7071 -0.6533
vn 0.5615 -0.6078 -0.5615
vn 0.6835 0.2561 -0.6835
vn 0.2824 0.6748 -0.6818
vn 0.4063 0.8184 -0.4063
vn 0.6533 -0.7071 -0.2706
vn 0.7941 -0.6078 0.0000
vn 0.9666 0.2561 0.0000
vn 0.6819 0.6748 -0.2824
vn 0.5746 0.8184 0.0000
vn 0.6533 -0.7071 0.2706
vn 0.5615 -0.6078 0.5615
vn 0.6835 0.2561 0.6835
vn 0.6818 0.6748 0.2824
vn 0.4063 0.8184 0.4063
vn 0.2706 -0.7071 0.6533
vn 0.0000 -0.6078 0.7941
vn 0.0000 0.2561 0.9666
vn 0.2824 0.6748 0.6819
vn 0.0000 0.8184 0.5746
vn -0.2706 -0.7071 0.6533
vn -0.5615 -0.6078 0.5615
vn -0.6835 0.2561 0.6835
vn -0.2824 0.6748 0.6818
vn -0.4063 0.8184 0.4063
vn -0.6533 -0.7071 0.2706
vn -0.7941 -0.6078 0.0000
vn -0.9666 0.2561 0.0000
vn -0.6819 0.6748 0.2824
vn -0.5746 0.8184 0.0000
vn -0.6533 -0.7071 -0.2706
vn -0.5615 -0.6078 -0.5615
vn -0.6835 0.2561 -0.6835
vn -0.6818 0.6748 -0.2824
vn -0.4063 0.8184 -0.4063
vn -0.2706 -0.7071 -0.6533
vn 0.0000 -0.6078 -0.7941
vn 0.0000 0.2561 -0.9666
vn -0.2824 0.6748 -0.6819
vn 0.0000 0.8184 -0.5746
vn 0.0000 -1.0000 0.0000
vn 0.2824 0.6748 -0.6819
vn 0.6818 0.6748 -0.2824
vn 0.6819 0.6748 0.2824
vn 0.2824 0.6748 0.6818
vn -0.2824 0.6748 0.6819
vn -0.6818 0.6748 0.2824
vn -0.6819 0.6748 -0.2824
vn -0.2824 0.6748 -0.6818
g Gem_Gem_Material
usemtl Material
s off
f 7/1/1 3/2/1 4/3/1
f 7/1/2 4/3/2 8/4/2
f 8/5/3 4/6/3 9/7/3
f 4/6/4 6/8/4 9/7/4
f 9/7/5 6/8/5 10/9/5
f 11/10/6 7/1/6 8/4/6
f 11/10/7 8/4/7 12/11/7
f 12/12/8 8/5/8 13/13/8
f 8/5/9 10/9/9 13/13/9
f 13/13/10 10/9/10 14/14/10
f 15/15/11 11/16/11 12/17/11
f 15/15/12 12/17/12 16/18/12
f 16/19/13 12/12/13 17/20/13
f 12/12/14 14/14/14 17/20/14
f 17/21/15 14/22/15 18/23/15
f 19/24/16 15/15/16 16/18/16
f 19/24/17 16/18/17 20/25/17
f 20/26/18 16/27/18 21/28/18
f 16/27/19 18/23/19 21/28/19
f 21/28/20 18/23/20 22/29/20
f 23/30/21 19/24/21 20/25/21
f 23/30/22 20/25/22 24/31/22
f 24/32/23 20/26/23 25/33/23
f 20/26/24 22/29/24 25/33/24
f 25/33/25 22/29/25 26/34/25
f 27/35/26 23/30/26 24/31/26
f 27/35/27 24/31/27 28/36/27
f 28/37/28 24/38/28 29/39/28
f 24/32/29 26/34/29 29/40/29
f 29/40/30 26/34/30 30/41/30
f 31/42/31 27/43/31 28/44/31
f 31/42/32 28/44/32 32/45/32
f 32/46/33 28/37/33 33/47/33
f 28/37/34 30/48/34 33/47/34
f 33/47/35 30/48/35 34/49/35
f 3/2/36 31/42/36 32/45/36
f 3/2/37 32/45/37 4/3/37
f 4/50/38 32/46/38 5/51/38
f 32/46/39 34/49/39 5/51/39
f 5/51/40 34/49/40 6/52/40
f 6/53/41 2/54/41 34/55/41
f 2/54/41 6/53/41 10/56/41
f 2/54/41 10/56/41 14/57/41
f 2/54/41 14/57/41 18/58/41
f 2/54/41 18/58/41 22/59/41
f 2/54/41 22/59/41 26/60/41
f 2/54/41 26/60/41 30/61/41
f 2/54/41 30/61/41 34/55/41
f 7/1/1 1/62/1 3/2/1
f 4/6/42 5/63/42 6/8/42
f 11/10/6 1/62/6 7/1/6
f 8/5/43 9/7/43 10/9/43
f 15/15/11 1/64/11 11/16/11
f 12/12/44 13/13/44 14/14/44
f 19/24/16 1/64/16 15/15/16
f 16/27/45 17/21/45 18/23/45
f 23/30/21 1/64/21 19/24/21
f 20/26/46 21/28/46 22/29/46
f 27/35/26 1/64/26 23/30/26
f 24/32/47 25/33/47 26/34/47
f 31/42/31 1/62/31 27/43/31
f 28/37/48 29/39/48 30/48/48
f 3/2/36 1/62/36 31/42/36
f 32/46/49 33/47/49 34/49/49
